<svg width="298px" height="39px" viewBox="0 0 298 39" version="1.1" xmlns="http://www.w3.org/2000/svg" xmlns:xlink="http://www.w3.org/1999/xlink">
    <title>Open Opportunities logo</title>
    <g id="Desktop-3" stroke="none" stroke-width="1" fill="none" fill-rule="evenodd" transform="translate(-27.000000, -65.000000)">
        <g id="Nav" transform="translate(0.000000, 39.000000)">
            <g id="LOGO" transform="translate(27.000000, 26.000000)">
                <path d="M144.478115,35.6004098 L144.09099,38.9077869 L143,38.9077869 L144.026469,30.0983607 L146.343356,30.0983607 C146.789139,30.0983607 147.17626,30.153688 147.504732,30.2643443 C147.833204,30.3750006 148.103993,30.5327859 148.317109,30.7377049 C148.530224,30.942624 148.68957,31.1885232 148.79515,31.4754098 C148.90073,31.7622965 148.953519,32.0819655 148.953519,32.4344262 C148.953519,32.8975433 148.881178,33.322744 148.736495,33.710041 C148.591811,34.097338 148.381631,34.4303265 148.105949,34.7090164 C147.830268,34.9877063 147.49007,35.2059418 147.085346,35.3637295 C146.680622,35.5215172 146.218227,35.6004098 145.698147,35.6004098 L144.478115,35.6004098 Z M145.017745,31.0020492 L144.583695,34.6905738 L145.803726,34.6905738 C146.136108,34.6905738 146.429382,34.6372956 146.683557,34.5307377 C146.937731,34.4241798 147.150844,34.2756157 147.3229,34.085041 C147.494957,33.8944663 147.625953,33.6670095 147.715891,33.4026639 C147.80583,33.1383184 147.850799,32.8504114 147.850799,32.5389344 C147.850799,32.3012283 147.817561,32.0881157 147.751084,31.8995902 C147.684608,31.7110646 147.584895,31.5502056 147.451942,31.4170082 C147.318989,31.2838108 147.150846,31.1813528 146.947506,31.1096311 C146.744166,31.0379095 146.507592,31.0020492 146.237776,31.0020492 L145.017745,31.0020492 Z M158.964314,33.8790984 C158.964314,34.3791009 158.91348,34.8524568 158.81181,35.2991803 C158.71014,35.7459039 158.566436,36.1588096 158.380693,36.5379098 C158.19495,36.9170101 157.970107,37.2581952 157.706156,37.5614754 C157.442206,37.8647556 157.146977,38.1229498 156.82046,38.3360656 C156.493944,38.5491814 156.14006,38.7131142 155.758798,38.8278689 C155.377537,38.9426235 154.977707,39 154.559296,39 C154.043126,39 153.578776,38.9036895 153.166231,38.7110656 C152.753686,38.5184417 152.401758,38.2510263 152.110435,37.9088115 C151.819112,37.5665966 151.596223,37.1598384 151.441764,36.6885246 C151.287304,36.2172108 151.210075,35.7008225 151.210075,35.1393443 C151.210075,34.3893405 151.321519,33.6997982 151.54441,33.0706967 C151.767302,32.4415952 152.07524,31.8995924 152.468232,31.4446721 C152.861225,30.9897518 153.326553,30.6352472 153.86423,30.3811475 C154.401907,30.1270479 154.985522,30 155.615093,30 C156.131262,30 156.595613,30.0973351 157.008158,30.2920082 C157.420702,30.4866813 157.772631,30.7561458 158.063954,31.1004098 C158.355277,31.4446739 158.578165,31.8534812 158.732625,32.3268443 C158.887085,32.8002073 158.964314,33.3176201 158.964314,33.8790984 Z M157.838131,33.9036885 C157.838131,33.456965 157.783387,33.0522559 157.673896,32.6895492 C157.564405,32.3268424 157.40897,32.0184439 157.207586,31.7643443 C157.006201,31.5102446 156.759851,31.3135253 156.468528,31.1741803 C156.177205,31.0348354 155.849716,30.9651639 155.486051,30.9651639 C155.024626,30.9651639 154.600357,31.062499 154.21323,31.2571721 C153.826102,31.4518452 153.493725,31.7295064 153.216088,32.0901639 C152.938452,32.4508215 152.721429,32.8862679 152.565014,33.3965164 C152.408599,33.9067648 152.330392,34.4774559 152.330392,35.1086066 C152.330392,35.5553301 152.385137,35.9590146 152.494627,36.3196721 C152.604118,36.6803297 152.759553,36.9877036 152.960938,37.2418033 C153.162322,37.4959029 153.407694,37.6915977 153.697062,37.8288934 C153.98643,37.9661892 154.312942,38.0348361 154.676607,38.0348361 C155.145852,38.0348361 155.574032,37.9385256 155.961159,37.7459016 C156.348287,37.5532777 156.680664,37.2776657 156.958301,36.9190574 C157.235937,36.560449 157.451982,36.1260271 157.606442,35.6157787 C157.760902,35.1055302 157.838131,34.5348392 157.838131,33.9036885 Z M161.649054,30.0983607 L162.505422,30.0983607 C162.603181,30.0983607 162.681388,30.1239752 162.740043,30.1752049 C162.798699,30.2264347 162.833892,30.2930324 162.845623,30.375 L163.748916,36.6086066 C163.756736,36.6659839 163.763579,36.7356553 163.769445,36.817623 C163.775311,36.8995906 163.782154,36.9795078 163.789974,37.057377 C163.793885,37.1475414 163.797795,37.2397536 163.801705,37.3340164 C163.840809,37.2028682 163.88089,37.0758203 163.921949,36.9528689 C163.963008,36.8299174 164.005044,36.7151645 164.048058,36.6086066 L166.564373,30.375 C166.595656,30.3053275 166.64649,30.2418036 166.716877,30.1844262 C166.787264,30.1270489 166.86938,30.0983607 166.96323,30.0983607 L167.215448,30.0983607 C167.313207,30.0983607 167.391413,30.1239752 167.450069,30.1752049 C167.508725,30.2264347 167.545873,30.2930324 167.561514,30.375 L168.611445,36.6086066 C168.630997,36.7151645 168.646638,36.8278683 168.65837,36.9467213 C168.670101,37.0655744 168.679876,37.1905731 168.687697,37.3217213 C168.726801,37.1905731 168.762971,37.0655744 168.79621,36.9467213 C168.829448,36.8278683 168.865618,36.7151645 168.904722,36.6086066 L171.268533,30.375 C171.295906,30.3053275 171.347718,30.2418036 171.42397,30.1844262 C171.500222,30.1270489 171.585272,30.0983607 171.679121,30.0983607 L172.535489,30.0983607 L169.092419,38.9077869 L168.101144,38.9077869 L166.96323,32.1270492 C166.951498,32.0614751 166.940745,31.9897545 166.930969,31.9118852 C166.921193,31.834016 166.912395,31.7540988 166.904574,31.6721311 C166.877202,31.7540988 166.850807,31.834016 166.825389,31.9118852 C166.799972,31.9897545 166.773577,32.0614751 166.746205,32.1270492 L164.01873,38.9077869 L163.03332,38.9077869 L161.649054,30.0983607 Z M179.88333,31.0389344 L176.205639,31.0389344 L175.853707,34.0081967 L178.833399,34.0081967 L178.721954,34.9118852 L175.748127,34.9118852 L175.390329,37.9733607 L179.079752,37.9733607 L178.968306,38.9077869 L174.176163,38.9077869 L175.214363,30.0983607 L179.994775,30.0983607 L179.88333,31.0389344 Z M183.735312,35.2131148 L183.301262,38.9077869 L182.210272,38.9077869 L183.236741,30.0983607 L185.448048,30.0983607 C185.893831,30.0983607 186.279975,30.1475405 186.606492,30.2459016 C186.933008,30.3442628 187.20282,30.4846302 187.415936,30.6670082 C187.629051,30.8493862 187.787419,31.0706954 187.891044,31.3309426 C187.994669,31.5911898 188.046481,31.8811459 188.046481,32.2008197 C188.046481,32.5573788 187.995647,32.8893427 187.893977,33.1967213 C187.792307,33.5040999 187.64567,33.7797119 187.454062,34.0235656 C187.262453,34.2674193 187.031744,34.4743844 186.761928,34.6444672 C186.492112,34.81455 186.187107,34.9405734 185.846905,35.022541 C185.972037,35.1127054 186.07566,35.235655 186.157778,35.3913934 L187.970229,38.9077869 L186.99655,38.9077869 C186.804941,38.9077869 186.66808,38.8258205 186.585962,38.6618852 L185.002267,35.4897541 C184.951432,35.3872946 184.892778,35.315574 184.826301,35.2745902 C184.759825,35.2336064 184.654246,35.2131148 184.509562,35.2131148 L183.735312,35.2131148 Z M184.233882,31.0020492 L183.835026,34.3770492 L184.908419,34.3770492 C185.240801,34.3770492 185.534075,34.3278693 185.788249,34.2295082 C186.042424,34.131147 186.256514,33.9928288 186.430525,33.8145492 C186.604537,33.6362696 186.735533,33.4252061 186.823516,33.1813525 C186.9115,32.9374988 186.955491,32.6700834 186.955491,32.3790984 C186.955491,31.9323748 186.821563,31.5911897 186.553702,31.3555328 C186.285841,31.1198759 185.884056,31.0020492 185.348334,31.0020492 L184.233882,31.0020492 Z M196.461849,31.0389344 L192.784158,31.0389344 L192.432226,34.0081967 L195.411918,34.0081967 L195.300473,34.9118852 L192.326646,34.9118852 L191.968849,37.9733607 L195.658271,37.9733607 L195.546826,38.9077869 L190.754683,38.9077869 L191.792883,30.0983607 L196.573295,30.0983607 L196.461849,31.0389344 Z M205.985804,33.8852459 C205.985804,34.6352497 205.875338,35.3186445 205.654402,35.9354508 C205.433465,36.5522572 205.128461,37.0809404 204.739378,37.5215164 C204.350295,37.9620924 203.886923,38.3032775 203.349246,38.545082 C202.811569,38.7868865 202.225999,38.9077869 201.592518,38.9077869 L198.689077,38.9077869 L199.727277,30.0983607 L202.624852,30.0983607 C203.141022,30.0983607 203.607327,30.1905728 204.023783,30.375 C204.440238,30.5594272 204.793144,30.8186459 205.082512,31.1526639 C205.37188,31.486682 205.594768,31.8862682 205.751183,32.3514344 C205.907598,32.8166007 205.985804,33.3278661 205.985804,33.8852459 Z M204.859622,33.9098361 C204.859622,33.4672109 204.805855,33.0676247 204.698319,32.7110656 C204.590784,32.3545064 204.436326,32.0522553 204.234942,31.8043033 C204.033557,31.5563512 203.788185,31.3657794 203.498817,31.232582 C203.209449,31.0993846 202.882938,31.0327869 202.519273,31.0327869 L200.724418,31.0327869 L199.903243,37.9795082 L201.698097,37.9795082 C202.167343,37.9795082 202.595523,37.8862714 202.98265,37.6997951 C203.369777,37.5133187 203.702154,37.2448788 203.979791,36.8944672 C204.257428,36.5440556 204.473473,36.1178304 204.627933,35.6157787 C204.782393,35.113727 204.859622,34.5450851 204.859622,33.9098361 Z M212.428677,38.9077869 L213.466877,30.0983607 L215.953864,30.0983607 C216.391827,30.0983607 216.768195,30.1444668 217.08298,30.2366803 C217.397765,30.3288939 217.656824,30.4600401 217.860164,30.630123 C218.063503,30.8002058 218.214051,31.0071709 218.31181,31.2510246 C218.409569,31.4948783 218.458448,31.7663919 218.458448,32.0655738 C218.458448,32.3278702 218.422278,32.5778677 218.349936,32.8155738 C218.277594,33.0532799 218.169083,33.27254 218.024399,33.4733607 C217.879715,33.6741813 217.698862,33.8524582 217.481837,34.0081967 C217.264811,34.1639352 217.011617,34.288934 216.72225,34.3831967 C217.226688,34.5020498 217.605989,34.7100395 217.860164,35.0071721 C218.114338,35.3043048 218.241423,35.6823748 218.241423,36.1413934 C218.241423,36.5471332 218.172015,36.9190557 218.033197,37.2571721 C217.894379,37.5952886 217.693975,37.8872939 217.431979,38.1331967 C217.169984,38.3790996 216.850316,38.5696715 216.472964,38.704918 C216.095613,38.8401646 215.670366,38.9077869 215.19721,38.9077869 L212.428677,38.9077869 Z M214.000641,34.8811475 L213.631112,37.9979508 L215.285193,37.9979508 C215.594113,37.9979508 215.86588,37.9549185 216.100503,37.8688525 C216.335125,37.7827865 216.530641,37.6598369 216.687056,37.5 C216.843471,37.3401631 216.960781,37.1475421 217.038989,36.9221311 C217.117196,36.6967202 217.156299,36.4426244 217.156299,36.1598361 C217.156299,35.7704899 217.031169,35.4600421 216.780905,35.2284836 C216.530641,34.9969251 216.153295,34.8811475 215.648856,34.8811475 L214.000641,34.8811475 Z M214.094489,34.0696721 L215.449428,34.0696721 C215.766169,34.0696721 216.042824,34.0256152 216.279402,33.9375 C216.515979,33.8493848 216.71345,33.7264352 216.871821,33.5686475 C217.030191,33.4108599 217.148478,33.2213126 217.226686,33 C217.304893,32.7786874 217.343996,32.5348374 217.343996,32.2684426 C217.343996,31.8463094 217.222777,31.5297142 216.980333,31.3186475 C216.73789,31.1075809 216.362499,31.0020492 215.85415,31.0020492 L214.458153,31.0020492 L214.094489,34.0696721 Z M224.545199,35.3852459 L224.128746,38.9077869 L223.031891,38.9077869 L223.448344,35.397541 L221.231171,30.0983607 L222.20485,30.0983607 C222.30261,30.0983607 222.376906,30.1239752 222.42774,30.1752049 C222.478575,30.2264347 222.519634,30.2909832 222.550917,30.3688525 L223.946914,33.897541 C223.986018,34.016394 224.019256,34.1290978 224.046629,34.2356557 C224.074001,34.3422136 224.097463,34.44877 224.117015,34.5553279 C224.163939,34.44877 224.215751,34.3422136 224.272452,34.2356557 C224.329152,34.1290978 224.39074,34.016394 224.457216,33.897541 L226.691985,30.3688525 C226.735,30.3032784 226.788766,30.2418036 226.853288,30.1844262 C226.917809,30.1270489 226.996993,30.0983607 227.090842,30.0983607 L228,30.0983607 L224.545199,35.3852459 Z" id="POWERED-BY-USAJOBS" fill="#595959"></path>
                <path d="M239.699099,37.289456 C239.966979,37.289456 240.206296,37.244124 240.417055,37.1534587 C240.627814,37.0627934 240.80607,36.9328417 240.951829,36.7635997 C241.097587,36.5943578 241.208874,36.3878454 241.285693,36.1440564 C241.362512,35.9002674 241.40092,35.6232386 241.40092,35.3129617 L241.40092,30.0967092 L243.398197,30.0967092 L243.398197,35.3129617 C243.398197,35.8529241 243.312516,36.3485538 243.141151,36.7998657 C242.969787,37.2511775 242.724561,37.6400252 242.405468,37.9664204 C242.086375,38.2928156 241.698348,38.5466747 241.241375,38.7280054 C240.784402,38.909336 240.270315,39 239.699099,39 C239.123943,39 238.607887,38.909336 238.150914,38.7280054 C237.693941,38.5466747 237.305913,38.2928156 236.98682,37.9664204 C236.667727,37.6400252 236.423487,37.2511775 236.254091,36.7998657 C236.084696,36.3485538 236,35.8529241 236,35.3129617 L236,30.0967092 L237.997277,30.0967092 L237.997277,35.3069174 C237.997277,35.6171943 238.035686,35.8942231 238.112504,36.1380121 C238.189323,36.3818011 238.30061,36.5893208 238.446369,36.7605776 C238.592127,36.9318343 238.770384,37.0627934 238.981143,37.1534587 C239.191902,37.244124 239.431218,37.289456 239.699099,37.289456 Z M251.184707,31.8858294 C251.125616,31.9825391 251.063571,32.0550703 250.99857,32.1034251 C250.93357,32.15178 250.849859,32.175957 250.747434,32.175957 C250.656827,32.175957 250.559328,32.1467431 250.454933,32.0883143 C250.350538,32.0298855 250.232357,31.964406 250.100387,31.8918737 C249.968416,31.8193415 249.817735,31.7538619 249.64834,31.6954332 C249.478945,31.6370044 249.285916,31.6077905 249.069248,31.6077905 C248.695003,31.6077905 248.416293,31.689388 248.23311,31.8525856 C248.049927,32.0157832 247.958337,32.2363989 247.958337,32.5144392 C247.958337,32.6917403 248.013488,32.8388174 248.123792,32.9556749 C248.234095,33.0725325 248.378867,33.1732702 248.558111,33.2578912 C248.737354,33.3425122 248.942201,33.4200802 249.172657,33.4905977 C249.403114,33.5611152 249.638491,33.6396906 249.878795,33.7263264 C250.1191,33.8129622 250.354477,33.9147073 250.584933,34.0315648 C250.815389,34.1484223 251.020236,34.2975142 251.19948,34.4788449 C251.378724,34.6601755 251.523495,34.8807912 251.633799,35.1406985 C251.744103,35.4006057 251.799254,35.7139001 251.799254,36.080591 C251.799254,36.4875776 251.730315,36.8683663 251.592435,37.2229684 C251.454556,37.5775706 251.254633,37.8868355 250.992661,38.1507723 C250.73069,38.4147092 250.407662,38.6222289 250.023568,38.7733378 C249.639475,38.9244467 249.20319,39 248.714702,39 C248.446821,39 248.17402,38.9717934 247.896291,38.9153794 C247.618562,38.8589655 247.3497,38.7793826 247.089699,38.6766286 C246.829697,38.5738746 246.585456,38.4519819 246.35697,38.3109469 C246.128483,38.169912 245.929545,38.0127611 245.76015,37.8394896 L246.351061,36.8844862 C246.394394,36.811954 246.455454,36.7535261 246.534243,36.7092008 C246.613031,36.6648755 246.697728,36.6427132 246.788334,36.6427132 C246.906517,36.6427132 247.025683,36.6809936 247.145835,36.7575554 C247.265987,36.8341172 247.401895,36.9187369 247.553563,37.0114171 C247.705231,37.1040972 247.879548,37.1887169 248.076519,37.2652787 C248.27349,37.3418405 248.505912,37.3801209 248.773793,37.3801209 C249.13622,37.3801209 249.417884,37.2985233 249.618795,37.1353257 C249.819705,36.9721281 249.920159,36.7132321 249.920159,36.35863 C249.920159,36.1531219 249.865008,35.9858972 249.754704,35.856951 C249.6444,35.7280047 249.499629,35.6212227 249.320385,35.5366017 C249.141141,35.4519808 248.937279,35.3774348 248.708793,35.3129617 C248.480306,35.2484886 248.245914,35.1769648 248.00561,35.0983882 C247.765305,35.0198116 247.530913,34.9231033 247.302426,34.8082606 C247.07394,34.6934178 246.870078,34.5423112 246.690834,34.3549362 C246.51159,34.1675612 246.366819,33.9338496 246.256515,33.6537945 C246.146211,33.3737394 246.09106,33.0282089 246.09106,32.6171927 C246.09106,32.286768 246.15606,31.9644072 246.286061,31.6501007 C246.416061,31.3357943 246.607121,31.0557433 246.859244,30.8099396 C247.111367,30.5641358 247.420607,30.3676972 247.786973,30.2206179 C248.153339,30.0735386 248.572881,30 249.045612,30 C249.309553,30 249.566596,30.0211549 249.81675,30.0634654 C250.066903,30.1057759 250.30425,30.1682333 250.528797,30.2508395 C250.753344,30.3334457 250.963115,30.4321687 251.158116,30.5470114 C251.353118,30.6618542 251.527434,30.7918059 251.681072,30.9368704 L251.184707,31.8858294 Z M262.493043,38.9032908 L260.944857,38.9032908 C260.771523,38.9032908 260.628721,38.8619883 260.516447,38.7793821 C260.404174,38.6967759 260.326372,38.5910013 260.283038,38.4620551 L259.774855,36.9267965 L256.501212,36.9267965 L255.993029,38.4620551 C255.953635,38.574883 255.876817,38.6766282 255.762574,38.7672935 C255.648331,38.8579588 255.508483,38.9032908 255.343028,38.9032908 L253.783024,38.9032908 L257.115759,30.0967092 L259.160308,30.0967092 L262.493043,38.9032908 Z M256.962122,35.5366017 L259.313945,35.5366017 L258.522125,33.1249161 C258.470913,32.9717924 258.410837,32.7914718 258.341897,32.583949 C258.272958,32.3764261 258.205004,32.1517809 258.138033,31.9100067 C258.075003,32.1558105 258.010003,32.3834778 257.943033,32.5930154 C257.876063,32.8025531 257.813033,32.983881 257.753942,33.1370047 L256.962122,35.5366017 Z M268.896822,35.7118872 C268.896822,36.2034947 268.836747,36.6507703 268.716595,37.0537273 C268.596442,37.4566844 268.415231,37.8022148 268.172957,38.0903291 C267.930683,38.3784433 267.626367,38.6020811 267.260001,38.7612492 C266.893634,38.9204172 266.462274,39 265.965907,39 C265.74136,39 265.519771,38.9879115 265.301133,38.963734 C265.082495,38.9395566 264.854997,38.8992615 264.618631,38.8428475 L264.724995,37.6521155 C264.732874,37.5473467 264.773253,37.462727 264.846132,37.3982539 C264.919011,37.3337807 265.02045,37.3015447 265.150451,37.3015447 C265.217421,37.3015447 265.300147,37.3126258 265.398633,37.3347884 C265.497119,37.3569511 265.615299,37.3680322 265.753179,37.3680322 C265.946211,37.3680322 266.114619,37.340833 266.258408,37.2864338 C266.402196,37.2320347 266.521362,37.1413707 266.615908,37.0144392 C266.710454,36.8875078 266.781363,36.7212905 266.828636,36.5157824 C266.875909,36.3102743 266.899545,36.0564152 266.899545,35.7541974 L266.899545,30.0967092 L268.896822,30.0967092 L268.896822,35.7118872 Z M280.500613,34.4969778 C280.500613,35.1336499 280.393265,35.7259879 280.178567,36.2740094 C279.963868,36.8220309 279.661522,37.2985205 279.271519,37.7034923 C278.881516,38.1084641 278.411747,38.425788 277.862198,38.6554735 C277.312649,38.885159 276.703032,39 276.033331,39 C275.363629,39 274.753028,38.885159 274.201509,38.6554735 C273.649989,38.425788 273.178251,38.1084641 272.786278,37.7034923 C272.394306,37.2985205 272.090975,36.8220309 271.876276,36.2740094 C271.661578,35.7259879 271.55423,35.1336499 271.55423,34.4969778 C271.55423,33.8603057 271.661578,33.2679678 271.876276,32.7199463 C272.090975,32.1719247 272.394306,31.6964426 272.786278,31.2934856 C273.178251,30.8905285 273.649989,30.574212 274.201509,30.3445265 C274.753028,30.114841 275.363629,30 276.033331,30 C276.703032,30 277.312649,30.1158484 277.862198,30.3475487 C278.411747,30.579249 278.881516,30.8965729 279.271519,31.2995299 C279.661522,31.7024869 279.963868,32.1779691 280.178567,32.7259906 C280.393265,33.2740121 280.500613,33.8643353 280.500613,34.4969778 Z M278.456063,34.4969778 C278.456063,34.0617843 278.400912,33.6699144 278.290608,33.3213566 C278.180304,32.9727988 278.021745,32.6776372 277.814925,32.435863 C277.608106,32.1940888 277.355002,32.0087313 277.055605,31.8797851 C276.756209,31.7508388 276.415455,31.6863667 276.033331,31.6863667 C275.647267,31.6863667 275.303558,31.7508388 275.002192,31.8797851 C274.700826,32.0087313 274.446737,32.1940888 274.239918,32.435863 C274.033098,32.6776372 273.874539,32.9727988 273.764235,33.3213566 C273.653931,33.6699144 273.59878,34.0617843 273.59878,34.4969778 C273.59878,34.936201 273.653931,35.3300856 273.764235,35.6786434 C273.874539,36.0272012 274.033098,36.3223628 274.239918,36.564137 C274.446737,36.8059112 274.700826,36.9902613 275.002192,37.1171927 C275.303558,37.2441242 275.647267,37.307589 276.033331,37.307589 C276.415455,37.307589 276.756209,37.2441242 277.055605,37.1171927 C277.355002,36.9902613 277.608106,36.8059112 277.814925,36.564137 C278.021745,36.3223628 278.180304,36.0272012 278.290608,35.6786434 C278.400912,35.3300856 278.456063,34.936201 278.456063,34.4969778 Z M283.146203,38.9032908 L283.146203,30.0967092 L286.313482,30.0967092 C286.908335,30.0967092 287.414543,30.1531223 287.832122,30.2659503 C288.2497,30.3787783 288.590455,30.5379439 288.854396,30.743452 C289.118338,30.9489601 289.310382,31.1987897 289.430534,31.4929483 C289.550686,31.7871069 289.610762,32.115512 289.610762,32.4781733 C289.610762,32.6756222 289.583186,32.8660165 289.528034,33.049362 C289.472882,33.2327074 289.386216,33.404969 289.268034,33.5661518 C289.149851,33.7273346 288.998186,33.8734043 288.813033,34.0043653 C288.62788,34.1353264 288.405306,34.24916 288.145304,34.3458697 C288.712581,34.4869047 289.132123,34.7155793 289.403943,35.0319006 C289.675763,35.3482219 289.811671,35.754195 289.811671,36.2498321 C289.811671,36.6245821 289.740763,36.9731347 289.598943,37.2955003 C289.457124,37.617866 289.249323,37.8989243 288.975533,38.1386837 C288.701743,38.3784431 288.363943,38.5658153 287.962122,38.7008059 C287.560301,38.8357965 287.101365,38.9032908 286.585301,38.9032908 L283.146203,38.9032908 Z M285.14348,35.1678979 L285.14348,37.3619879 L286.549846,37.3619879 C286.813787,37.3619879 287.029468,37.3277371 287.196893,37.2592344 C287.364318,37.1907317 287.495302,37.1020825 287.589848,36.9932841 C287.684394,36.8844857 287.749394,36.7615856 287.784849,36.6245803 C287.820304,36.4875749 287.838031,36.3485568 287.838031,36.2075218 C287.838031,36.046339 287.817349,35.9012767 287.775985,35.7723304 C287.734621,35.6433842 287.663713,35.5345874 287.563257,35.4459369 C287.462802,35.3572863 287.329849,35.2887847 287.164393,35.2404298 C286.998937,35.192075 286.790151,35.1678979 286.538028,35.1678979 L285.14348,35.1678979 Z M285.14348,33.8018805 L286.183482,33.8018805 C286.404089,33.8018805 286.603027,33.7857624 286.780301,33.7535259 C286.957575,33.7212893 287.108256,33.6648762 287.232348,33.5842848 C287.356439,33.5036934 287.450984,33.3928818 287.515985,33.2518469 C287.580985,33.1108119 287.613485,32.9335135 287.613485,32.7199463 C287.613485,32.5104086 287.587879,32.3361323 287.536666,32.1971122 C287.485454,32.058092 287.406667,31.9462731 287.300302,31.8616521 C287.193938,31.7770311 287.059015,31.7165885 286.895529,31.6803224 C286.732043,31.6440562 286.538029,31.6259234 286.313482,31.6259234 L285.14348,31.6259234 L285.14348,33.8018805 Z M297.385453,31.8858294 C297.326362,31.9825391 297.264317,32.0550703 297.199316,32.1034251 C297.134316,32.15178 297.050605,32.175957 296.94818,32.175957 C296.857573,32.175957 296.760074,32.1467431 296.655679,32.0883143 C296.551284,32.0298855 296.433103,31.964406 296.301133,31.8918737 C296.169162,31.8193415 296.018482,31.7538619 295.849086,31.6954332 C295.679691,31.6370044 295.486662,31.6077905 295.269994,31.6077905 C294.895749,31.6077905 294.617039,31.689388 294.433856,31.8525856 C294.250673,32.0157832 294.159083,32.2363989 294.159083,32.5144392 C294.159083,32.6917403 294.214234,32.8388174 294.324538,32.9556749 C294.434842,33.0725325 294.579613,33.1732702 294.758857,33.2578912 C294.938101,33.3425122 295.142947,33.4200802 295.373404,33.4905977 C295.60386,33.5611152 295.839237,33.6396906 296.079541,33.7263264 C296.319846,33.8129622 296.555223,33.9147073 296.785679,34.0315648 C297.016135,34.1484223 297.220982,34.2975142 297.400226,34.4788449 C297.57947,34.6601755 297.724241,34.8807912 297.834545,35.1406985 C297.944849,35.4006057 298,35.7139001 298,36.080591 C298,36.4875776 297.931061,36.8683663 297.793181,37.2229684 C297.655302,37.5775706 297.455379,37.8868355 297.193407,38.1507723 C296.931436,38.4147092 296.608408,38.6222289 296.224314,38.7733378 C295.840221,38.9244467 295.403936,39 294.915448,39 C294.647567,39 294.374766,38.9717934 294.097037,38.9153794 C293.819308,38.8589655 293.550446,38.7793826 293.290445,38.6766286 C293.030443,38.5738746 292.786202,38.4519819 292.557716,38.3109469 C292.329229,38.169912 292.130292,38.0127611 291.960896,37.8394896 L292.551807,36.8844862 C292.59514,36.811954 292.6562,36.7535261 292.734989,36.7092008 C292.813777,36.6648755 292.898474,36.6427132 292.98908,36.6427132 C293.107263,36.6427132 293.226429,36.6809936 293.346581,36.7575554 C293.466733,36.8341172 293.602642,36.9187369 293.754309,37.0114171 C293.905977,37.1040972 294.080294,37.1887169 294.277265,37.2652787 C294.474236,37.3418405 294.706658,37.3801209 294.974539,37.3801209 C295.336966,37.3801209 295.61863,37.2985233 295.819541,37.1353257 C296.020451,36.9721281 296.120905,36.7132321 296.120905,36.35863 C296.120905,36.1531219 296.065754,35.9858972 295.95545,35.856951 C295.845146,35.7280047 295.700375,35.6212227 295.521131,35.5366017 C295.341887,35.4519808 295.138025,35.3774348 294.909539,35.3129617 C294.681052,35.2484886 294.44666,35.1769648 294.206356,35.0983882 C293.966051,35.0198116 293.731659,34.9231033 293.503172,34.8082606 C293.274686,34.6934178 293.070824,34.5423112 292.89158,34.3549362 C292.712336,34.1675612 292.567565,33.9338496 292.457261,33.6537945 C292.346957,33.3737394 292.291806,33.0282089 292.291806,32.6171927 C292.291806,32.286768 292.356806,31.9644072 292.486807,31.6501007 C292.616808,31.3357943 292.807867,31.0557433 293.05999,30.8099396 C293.312113,30.5641358 293.621353,30.3676972 293.987719,30.2206179 C294.354085,30.0735386 294.773627,30 295.246358,30 C295.510299,30 295.767343,30.0211549 296.017496,30.0634654 C296.267649,30.1057759 296.504996,30.1682333 296.729543,30.2508395 C296.95409,30.3334457 297.163861,30.4321687 297.358862,30.5470114 C297.553864,30.6618542 297.72818,30.7918059 297.881818,30.9368704 L297.385453,31.8858294 Z" id="POWERED-BY-USAJOBS" fill="#981B1E"></path>
                <path d="M15.8006215,7.69716088 C14.5733826,6.30914132 13.0649241,5.61514196 11.2752008,5.61514196 C9.4854774,5.61514196 7.97701891,6.30914132 6.74978004,7.69716088 C5.52254117,9.08518044 4.90893094,10.7623456 4.90893094,12.7287066 C4.90893094,14.6950677 5.52254117,16.3669752 6.74978004,17.7444795 C7.97701891,19.1219838 9.4854774,19.8107256 11.2752008,19.8107256 C13.0649241,19.8107256 14.5733826,19.1219838 15.8006215,17.7444795 C17.0278603,16.3669752 17.6414706,14.6950677 17.6414706,12.7287066 C17.6414706,10.7623456 17.0278603,9.08518044 15.8006215,7.69716088 Z M11.2598603,24.1009464 C8.08949326,24.1009464 5.42028875,23.0126292 3.25216675,20.8359621 C1.08404474,18.6592951 0,15.9516461 0,12.7129338 C0,9.47422145 1.08404474,6.7665724 3.25216675,4.58990536 C5.42028875,2.41323833 8.08949326,1.32492114 11.2598603,1.32492114 C14.4302274,1.32492114 17.0994319,2.41323833 19.2675539,4.58990536 C21.4356759,6.7665724 22.5197207,9.47422145 22.5197207,12.7129338 C22.5197207,15.9516461 21.4356759,18.6592951 19.2675539,20.8359621 C17.0994319,23.0126292 14.4302274,24.1009464 11.2598603,24.1009464 Z M40.2936766,9.10094637 C41.7970442,10.7518484 42.5487168,12.828589 42.5487168,15.3312303 C42.5487168,17.8338716 41.7970442,19.9263849 40.2936766,21.6088328 C38.790309,23.2912808 37.031293,24.1324921 35.0165759,24.1324921 C33.0018587,24.1324921 31.380905,23.3017959 30.1536661,21.6403785 L30.1536661,30 L25.5515434,30 L25.5515434,6.90851735 L30.1536661,6.90851735 L30.1536661,8.80126183 C31.5649909,7.35015047 33.2319653,6.62460568 35.1546395,6.62460568 C37.0773138,6.62460568 38.790309,7.45004432 40.2936766,9.10094637 Z M31.2121544,18.785489 C31.9587247,19.6582588 32.8637998,20.0946372 33.9274068,20.0946372 C34.9910138,20.0946372 35.921656,19.6582588 36.7193613,18.785489 C37.5170665,17.9127191 37.9159132,16.7928565 37.9159132,15.4258675 C37.9159132,14.0588785 37.5272934,12.9127281 36.7500421,11.9873817 C35.9727908,11.0620353 35.0421486,10.5993691 33.9580876,10.5993691 C32.8740266,10.5993691 31.9587247,11.0567778 31.2121544,11.9716088 C30.4655841,12.8864399 30.0923045,14.0325904 30.0923045,15.4100946 C30.0923045,16.7875989 30.4655841,17.9127191 31.2121544,18.785489 Z M59.7243967,21.4195584 C57.8630845,23.2281899 55.6796547,24.1324921 53.174042,24.1324921 C50.6684293,24.1324921 48.5974948,23.3385989 46.9611763,21.7507886 C45.3248578,20.1629784 44.5067108,18.0336621 44.5067108,15.362776 C44.5067108,12.6918899 45.3401981,10.5678312 47.0071975,8.99053628 C48.674197,7.41324132 50.6428632,6.62460568 52.9132551,6.62460568 C55.183647,6.62460568 57.1114058,7.32912019 58.6965893,8.73817035 C60.2817729,10.1472205 61.0743528,12.0820066 61.0743528,14.5425868 L61.0743528,17.0662461 L49.047472,17.0662461 C49.1906498,17.9915924 49.6610843,18.7486826 50.4587896,19.3375394 C51.2564949,19.9263962 52.1564565,20.2208202 53.1587016,20.2208202 C54.7745661,20.2208202 56.104055,19.6635177 57.147208,18.5488959 L59.7243967,21.4195584 Z M55.3063589,11.3564669 C54.6722855,10.8096713 53.9001593,10.5362776 52.9899571,10.5362776 C52.079755,10.5362776 51.2462677,10.8201864 50.4894704,11.3880126 C49.7326731,11.9558388 49.2929191,12.7234442 49.1701952,13.6908517 L56.4108684,13.6908517 C56.3085985,12.681383 55.9404323,11.9032625 55.3063589,11.3564669 Z M68.4321709,14.4164038 L68.4321709,23.8801262 L63.8300481,23.8801262 L63.8300481,6.90851735 L68.4321709,6.90851735 L68.4321709,8.80126183 C69.8230416,7.35015047 71.3877477,6.62460568 73.1263361,6.62460568 C74.8649245,6.62460568 76.3222488,7.2555142 77.4983527,8.51735016 C78.6744566,9.77918612 79.2624997,11.4616088 79.2624997,13.5646688 L79.2624997,23.8801262 L74.660377,23.8801262 L74.660377,14.2902208 C74.660377,11.6824265 73.7297348,10.3785489 71.8684225,10.3785489 C70.9479934,10.3785489 70.1451866,10.720291 69.4599783,11.4037855 C68.7747699,12.08728 68.4321709,13.091476 68.4321709,14.4164038 Z M105.452762,7.69716088 C104.225523,6.30914132 102.717065,5.61514196 100.927341,5.61514196 C99.1376179,5.61514196 97.6291595,6.30914132 96.4019206,7.69716088 C95.1746817,9.08518044 94.5610715,10.7623456 94.5610715,12.7287066 C94.5610715,14.6950677 95.1746817,16.3669752 96.4019206,17.7444795 C97.6291595,19.1219838 99.1376179,19.8107256 100.927341,19.8107256 C102.717065,19.8107256 104.225523,19.1219838 105.452762,17.7444795 C106.680001,16.3669752 107.293611,14.6950677 107.293611,12.7287066 C107.293611,10.7623456 106.680001,9.08518044 105.452762,7.69716088 Z M100.912001,24.1009464 C97.7416338,24.1009464 95.0724293,23.0126292 92.9043073,20.8359621 C90.7361853,18.6592951 89.6521405,15.9516461 89.6521405,12.7129338 C89.6521405,9.47422145 90.7361853,6.7665724 92.9043073,4.58990536 C95.0724293,2.41323833 97.7416338,1.32492114 100.912001,1.32492114 C104.082368,1.32492114 106.751572,2.41323833 108.919694,4.58990536 C111.087816,6.7665724 112.171861,9.47422145 112.171861,12.7129338 C112.171861,15.9516461 111.087816,18.6592951 108.919694,20.8359621 C106.751572,23.0126292 104.082368,24.1009464 100.912001,24.1009464 Z M129.945817,9.10094637 C131.449185,10.7518484 132.200857,12.828589 132.200857,15.3312303 C132.200857,17.8338716 131.449185,19.9263849 129.945817,21.6088328 C128.44245,23.2912808 126.683434,24.1324921 124.668716,24.1324921 C122.653999,24.1324921 121.033046,23.3017959 119.805807,21.6403785 L119.805807,30 L115.203684,30 L115.203684,6.90851735 L119.805807,6.90851735 L119.805807,8.80126183 C121.217131,7.35015047 122.884106,6.62460568 124.80678,6.62460568 C126.729454,6.62460568 128.44245,7.45004432 129.945817,9.10094637 Z M120.864295,18.785489 C121.610865,19.6582588 122.51594,20.0946372 123.579547,20.0946372 C124.643154,20.0946372 125.573797,19.6582588 126.371502,18.785489 C127.169207,17.9127191 127.568054,16.7928565 127.568054,15.4258675 C127.568054,14.0588785 127.179434,12.9127281 126.402183,11.9873817 C125.624931,11.0620353 124.694289,10.5993691 123.610228,10.5993691 C122.526167,10.5993691 121.610865,11.0567778 120.864295,11.9716088 C120.117725,12.8864399 119.744445,14.0325904 119.744445,15.4100946 C119.744445,16.7875989 120.117725,17.9127191 120.864295,18.785489 Z M149.821409,9.10094637 C151.324777,10.7518484 152.076449,12.828589 152.076449,15.3312303 C152.076449,17.8338716 151.324777,19.9263849 149.821409,21.6088328 C148.318042,23.2912808 146.559026,24.1324921 144.544308,24.1324921 C142.529591,24.1324921 140.908638,23.3017959 139.681399,21.6403785 L139.681399,30 L135.079276,30 L135.079276,6.90851735 L139.681399,6.90851735 L139.681399,8.80126183 C141.092723,7.35015047 142.759698,6.62460568 144.682372,6.62460568 C146.605046,6.62460568 148.318042,7.45004432 149.821409,9.10094637 Z M140.739887,18.785489 C141.486457,19.6582588 142.391532,20.0946372 143.455139,20.0946372 C144.518746,20.0946372 145.449389,19.6582588 146.247094,18.785489 C147.044799,17.9127191 147.443646,16.7928565 147.443646,15.4258675 C147.443646,14.0588785 147.055026,12.9127281 146.277775,11.9873817 C145.500523,11.0620353 144.569881,10.5993691 143.48582,10.5993691 C142.401759,10.5993691 141.486457,11.0567778 140.739887,11.9716088 C139.993317,12.8864399 139.620037,14.0325904 139.620037,15.4100946 C139.620037,16.7875989 139.993317,17.9127191 140.739887,18.785489 Z M159.787097,18.785489 C160.554121,19.6582588 161.535897,20.0946372 162.732455,20.0946372 C163.929013,20.0946372 164.91079,19.6582588 165.677814,18.785489 C166.444838,17.9127191 166.828345,16.7823413 166.828345,15.3943218 C166.828345,14.0063022 166.444838,12.8706669 165.677814,11.9873817 C164.91079,11.1040965 163.929013,10.6624606 162.732455,10.6624606 C161.535897,10.6624606 160.554121,11.1040965 159.787097,11.9873817 C159.020073,12.8706669 158.636566,14.0063022 158.636566,15.3943218 C158.636566,16.7823413 159.020073,17.9127191 159.787097,18.785489 Z M168.976002,21.6088328 C167.319229,23.2912808 165.238068,24.1324921 162.732455,24.1324921 C160.226843,24.1324921 158.145681,23.2912808 156.488909,21.6088328 C154.832136,19.9263849 154.003763,17.8549019 154.003763,15.3943218 C154.003763,12.9337416 154.832136,10.8570011 156.488909,9.16403785 C158.145681,7.47107461 160.226843,6.62460568 162.732455,6.62460568 C165.238068,6.62460568 167.319229,7.47107461 168.976002,9.16403785 C170.632774,10.8570011 171.461148,12.9337416 171.461148,15.3943218 C171.461148,17.8549019 170.632774,19.9263849 168.976002,21.6088328 Z M182.991558,11.0725552 C181.621141,11.0725552 180.598457,11.5720244 179.923476,12.5709779 C179.248494,13.5699314 178.911009,14.8895817 178.911009,16.5299685 L178.911009,23.8801262 L174.308886,23.8801262 L174.308886,6.90851735 L178.911009,6.90851735 L178.911009,9.14826498 C179.504174,8.45425521 180.24562,7.86540726 181.135368,7.38170347 C182.025116,6.89799968 182.930191,6.64563628 183.850621,6.62460568 L183.881301,11.0725552 L182.991558,11.0725552 Z M191.852736,10.3154574 L191.852736,17.9179811 C191.852736,18.5699297 192.016365,19.079914 192.343629,19.4479495 C192.670893,19.815985 193.059512,20 193.5095,20 C194.368567,20 195.094673,19.6004246 195.687838,18.8012618 L197.405964,22.1135647 C195.974185,23.459523 194.465727,24.1324921 192.880543,24.1324921 C191.29536,24.1324921 189.955644,23.5962199 188.861356,22.5236593 C187.767068,21.4510987 187.219932,19.989494 187.219932,18.1388013 L187.219932,10.3154574 L185.287041,10.3154574 L185.287041,6.90851735 L187.219932,6.90851735 L187.219932,1.829653 L191.852736,1.829653 L191.852736,6.90851735 L195.841242,6.90851735 L195.841242,10.3154574 L191.852736,10.3154574 Z M209.94884,16.0567823 L209.94884,6.90851735 L214.581644,6.90851735 L214.581644,23.8801262 L209.94884,23.8801262 L209.94884,21.6403785 C208.803417,23.3017959 207.325639,24.1324921 205.515462,24.1324921 C203.705285,24.1324921 202.186599,23.5489017 200.959361,22.3817035 C199.732122,21.2145052 199.118511,19.4847644 199.118511,17.192429 L199.118511,6.90851735 L203.751315,6.90851735 L203.751315,16.1514196 C203.751315,18.7592139 204.681957,20.0630915 206.543269,20.0630915 C207.463699,20.0630915 208.261392,19.7213494 208.936373,19.0378549 C209.611355,18.3543604 209.94884,17.3606795 209.94884,16.0567823 Z M222.98261,14.4164038 L222.98261,23.8801262 L218.380487,23.8801262 L218.380487,6.90851735 L222.98261,6.90851735 L222.98261,8.80126183 C224.373481,7.35015047 225.938187,6.62460568 227.676775,6.62460568 C229.415363,6.62460568 230.872688,7.2555142 232.048792,8.51735016 C233.224896,9.77918612 233.812939,11.4616088 233.812939,13.5646688 L233.812939,23.8801262 L229.210816,23.8801262 L229.210816,14.2902208 C229.210816,11.6824265 228.280174,10.3785489 226.418861,10.3785489 C225.498432,10.3785489 224.695626,10.720291 224.010417,11.4037855 C223.325209,12.08728 222.98261,13.091476 222.98261,14.4164038 Z M242.02982,23.8801262 L237.427697,23.8801262 L237.427697,6.90851735 L242.02982,6.90851735 L242.02982,23.8801262 Z M237.028846,2.77602524 C237.028846,1.99789306 237.289631,1.34069669 237.811207,0.804416404 C238.332784,0.26813612 238.971961,0 239.728758,0 C240.485556,0 241.124733,0.26813612 241.646309,0.804416404 C242.167886,1.34069669 242.42867,1.99789306 242.42867,2.77602524 C242.42867,3.55415741 242.167886,4.21135379 241.646309,4.74763407 C241.124733,5.28391435 240.485556,5.55205047 239.728758,5.55205047 C238.971961,5.55205047 238.332784,5.28391435 237.811207,4.74763407 C237.289631,4.21135379 237.028846,3.55415741 237.028846,2.77602524 Z M251.320529,10.3154574 L251.320529,17.9179811 C251.320529,18.5699297 251.484159,19.079914 251.811422,19.4479495 C252.138686,19.815985 252.527306,20 252.977294,20 C253.836361,20 254.562466,19.6004246 255.155632,18.8012618 L256.873757,22.1135647 C255.441979,23.459523 253.93352,24.1324921 252.348337,24.1324921 C250.763153,24.1324921 249.423438,23.5962199 248.32915,22.5236593 C247.234862,21.4510987 246.687726,19.989494 246.687726,18.1388013 L246.687726,10.3154574 L244.754834,10.3154574 L244.754834,6.90851735 L246.687726,6.90851735 L246.687726,1.829653 L251.320529,1.829653 L251.320529,6.90851735 L255.309036,6.90851735 L255.309036,10.3154574 L251.320529,10.3154574 Z M263.372513,23.8801262 L258.77039,23.8801262 L258.77039,6.90851735 L263.372513,6.90851735 L263.372513,23.8801262 Z M258.371539,2.77602524 C258.371539,1.99789306 258.632324,1.34069669 259.1539,0.804416404 C259.675477,0.26813612 260.314654,0 261.071451,0 C261.828249,0 262.467426,0.26813612 262.989002,0.804416404 C263.510579,1.34069669 263.771363,1.99789306 263.771363,2.77602524 C263.771363,3.55415741 263.510579,4.21135379 262.989002,4.74763407 C262.467426,5.28391435 261.828249,5.55205047 261.071451,5.55205047 C260.314654,5.55205047 259.675477,5.28391435 259.1539,4.74763407 C258.632324,4.21135379 258.371539,3.55415741 258.371539,2.77602524 Z M281.468617,21.4195584 C279.607305,23.2281899 277.423875,24.1324921 274.918262,24.1324921 C272.41265,24.1324921 270.341715,23.3385989 268.705397,21.7507886 C267.069078,20.1629784 266.250931,18.0336621 266.250931,15.362776 C266.250931,12.6918899 267.084419,10.5678312 268.751418,8.99053628 C270.418417,7.41324132 272.387084,6.62460568 274.657476,6.62460568 C276.927867,6.62460568 278.855626,7.32912019 280.44081,8.73817035 C282.025993,10.1472205 282.818573,12.0820066 282.818573,14.5425868 L282.818573,17.0662461 L270.791692,17.0662461 C270.93487,17.9915924 271.405305,18.7486826 272.20301,19.3375394 C273.000715,19.9263962 273.900677,20.2208202 274.902922,20.2208202 C276.518787,20.2208202 277.848275,19.6635177 278.891428,18.5488959 L281.468617,21.4195584 Z M277.050579,11.3564669 C276.416506,10.8096713 275.64438,10.5362776 274.734178,10.5362776 C273.823975,10.5362776 272.990488,10.8201864 272.233691,11.3880126 C271.476894,11.9558388 271.03714,12.7234442 270.914416,13.6908517 L278.155089,13.6908517 C278.052819,12.681383 277.684653,11.9032625 277.050579,11.3564669 Z M296.205172,22.6182965 C295.008614,23.6277653 293.489929,24.1324921 291.649071,24.1324921 C290.421832,24.1324921 289.143477,23.9064166 287.813968,23.4542587 C286.48446,23.0021008 285.28792,22.3343893 284.224313,21.4511041 L286.249247,18.4858044 C287.967381,19.8527934 289.797985,20.5362776 291.741113,20.5362776 C292.334279,20.5362776 292.804713,20.4153535 293.152431,20.1735016 C293.500148,19.9316497 293.674005,19.6109379 293.674005,19.2113565 C293.674005,18.8117751 293.433674,18.4437451 292.953005,18.1072555 C292.472337,17.7707659 291.776912,17.4553117 290.86671,17.1608833 C289.956508,16.8664549 289.261083,16.6140915 288.780414,16.4037855 C288.299746,16.1934795 287.75261,15.8885404 287.13899,15.488959 C285.891297,14.6897962 285.26746,13.5068427 285.26746,11.9400631 C285.26746,10.3732834 285.881071,9.09569369 287.108309,8.10725552 C288.335548,7.11881735 289.920708,6.62460568 291.863836,6.62460568 C293.806965,6.62460568 295.750064,7.29757476 297.693192,8.64353312 L295.975066,11.7981073 C294.543287,10.7886385 293.116644,10.2839117 291.695092,10.2839117 C290.27354,10.2839117 289.562775,10.6834871 289.562775,11.4826498 C289.562775,11.9242924 289.787765,12.2712921 290.237753,12.5236593 C290.687741,12.7760265 291.4343,13.0704505 292.477453,13.4069401 C293.520606,13.7434297 294.262051,14.0010506 294.701812,14.1798107 C295.141573,14.3585708 295.668255,14.6372221 296.281874,15.0157729 C297.427297,15.7308132 298,16.9242819 298,18.5962145 C298,20.2681472 297.40173,21.6088278 296.205172,22.6182965 Z" id="Open-Opportunities" fill="#009688"></path>
            </g>
        </g>
    </g>
</svg>
