<?xml version="1.0" encoding="UTF-8"?>
<svg viewBox="0 0 1506 337" version="1.1" xmlns="http://www.w3.org/2000/svg" xmlns:xlink="http://www.w3.org/1999/xlink" style="background: #FFFFFF;">
    <!-- Generator: Sketch 46.2 (44496) - http://www.bohemiancoding.com/sketch -->
    <defs></defs>
    <g id="Draft" stroke="none" stroke-width="1" fill="none" fill-rule="evenodd">
        <g id="Logo">
            <g id="Group-4" transform="translate(46.000000, 76.000000)">
                <path d="M686.025394,168.757514 L684.18541,184.559426 L679,184.559426 L683.878746,142.469945 L694.890773,142.469945 C697.009553,142.469945 698.849519,142.734287 700.410726,143.262978 C701.971932,143.791669 703.258979,144.545532 704.271905,145.52459 C705.284831,146.503648 706.04219,147.6785 706.544007,149.04918 C707.045823,150.419861 707.296727,151.947168 707.296727,153.631148 C707.296727,155.843818 706.952895,157.875332 706.265221,159.725751 C705.577547,161.57617 704.578575,163.167115 703.268277,164.498634 C701.957979,165.830152 700.341039,166.872833 698.41741,167.626708 C696.49378,168.380582 694.296043,168.757514 691.824133,168.757514 L686.025394,168.757514 Z M688.590221,146.787568 L686.527208,164.410519 L692.325947,164.410519 C693.905739,164.410519 695.299652,164.155968 696.507729,163.646858 C697.715805,163.137748 698.728716,162.427942 699.546491,161.517418 C700.364266,160.606894 700.98688,159.520157 701.414354,158.257172 C701.841827,156.994188 702.05556,155.618632 702.05556,154.130464 C702.05556,152.994758 701.897583,151.976553 701.581625,151.07582 C701.265666,150.175087 700.791736,149.406538 700.159819,148.77015 C699.527902,148.133763 698.728725,147.644241 697.762264,147.301571 C696.795802,146.958901 695.671379,146.787568 694.388959,146.787568 L688.590221,146.787568 Z M754.877445,160.53347 C754.877445,162.922371 754.635833,165.18396 754.152603,167.318306 C753.669372,169.452652 752.986355,171.425424 752.103529,173.23668 C751.220704,175.047937 750.152037,176.678044 748.897496,178.127049 C747.642955,179.576055 746.239749,180.809649 744.687835,181.827869 C743.135922,182.846089 741.453933,183.629323 739.641818,184.177596 C737.829703,184.725868 735.929334,185 733.940655,185 C731.48733,185 729.2803,184.53985 727.319499,183.619536 C725.358698,182.699221 723.686002,181.42157 722.30136,179.786544 C720.916719,178.151517 719.857345,176.208117 719.123206,173.956284 C718.389067,171.704451 718.022003,169.237263 718.022003,166.554645 C718.022003,162.971294 718.55169,159.676814 719.61108,156.671107 C720.670471,153.665399 722.13408,151.075831 724.001952,148.902322 C725.869824,146.728814 728.0815,145.03507 730.637047,143.821038 C733.192593,142.607007 735.966481,142 738.958794,142 C741.412118,142 743.619148,142.465045 745.579949,143.39515 C747.54075,144.325255 749.213446,145.612697 750.598088,147.257514 C751.982729,148.902331 753.042104,150.855521 753.776242,153.117145 C754.510381,155.378768 754.877445,157.850852 754.877445,160.53347 Z M749.524764,160.650956 C749.524764,158.51661 749.264566,156.583 748.744164,154.850068 C748.223762,153.117136 747.484988,151.643676 746.52782,150.429645 C745.570651,149.215613 744.399764,148.275732 743.015122,147.609973 C741.630481,146.944213 740.073944,146.611339 738.345465,146.611339 C736.152342,146.611339 734.135814,147.076384 732.29582,148.006489 C730.455827,148.936594 728.876058,150.263197 727.556467,151.986339 C726.236876,153.70948 725.20538,155.789947 724.461948,158.227801 C723.718516,160.665654 723.346806,163.392289 723.346806,166.407787 C723.346806,168.542133 723.607003,170.470847 724.127405,172.193989 C724.647808,173.917131 725.386582,175.385695 726.34375,176.599727 C727.300918,177.813758 728.467159,178.748744 729.842508,179.404713 C731.217857,180.060682 732.769747,180.388661 734.498226,180.388661 C736.728521,180.388661 738.763634,179.928511 740.603628,179.008197 C742.443621,178.087882 744.02339,176.77107 745.342981,175.057719 C746.662573,173.344368 747.689422,171.268796 748.423561,168.830943 C749.1577,166.393089 749.524764,163.666454 749.524764,160.650956 Z M767.637855,142.469945 L771.708123,142.469945 C772.172768,142.469945 772.544478,142.592326 772.823265,142.83709 C773.102052,143.081855 773.269322,143.400044 773.325079,143.791667 L777.618375,173.574454 C777.655547,173.84859 777.688072,174.181464 777.71595,174.573087 C777.743829,174.964711 777.776354,175.346537 777.813525,175.718579 C777.832111,176.149365 777.850697,176.589934 777.869282,177.040301 C778.05514,176.413704 778.245642,175.806697 778.440793,175.219262 C778.635944,174.631828 778.835738,174.083564 779.040181,173.574454 L791.000079,143.791667 C791.148765,143.458787 791.390377,143.155284 791.724921,142.881148 C792.059466,142.607011 792.449761,142.469945 792.89582,142.469945 L794.094598,142.469945 C794.559243,142.469945 794.930953,142.592326 795.20974,142.83709 C795.488527,143.081855 795.665089,143.400044 795.739432,143.791667 L800.729693,173.574454 C800.822622,174.083564 800.896964,174.622037 800.952721,175.189891 C801.008479,175.757744 801.054942,176.35496 801.092114,176.981557 C801.277972,176.35496 801.449888,175.757744 801.607867,175.189891 C801.765846,174.622037 801.937762,174.083564 802.12362,173.574454 L813.358676,143.791667 C813.488776,143.458787 813.735034,143.155284 814.097457,142.881148 C814.45988,142.607011 814.864115,142.469945 815.310174,142.469945 L819.380442,142.469945 L803.015734,184.559426 L798.304259,184.559426 L792.89582,152.162568 C792.840063,151.84927 792.788953,151.506605 792.742488,151.134563 C792.696024,150.762521 792.654207,150.380694 792.617035,149.989071 C792.486934,150.380694 792.361482,150.762521 792.240675,151.134563 C792.119867,151.506605 791.994415,151.84927 791.864314,152.162568 L778.900789,184.559426 L774.217192,184.559426 L767.637855,142.469945 Z M854.304299,146.963798 L836.824448,146.963798 L835.151735,161.150273 L849.314038,161.150273 L848.784346,165.467896 L834.649921,165.467896 L832.94933,180.094945 L850.484937,180.094945 L849.955245,184.559426 L827.17847,184.559426 L832.112973,142.469945 L854.833991,142.469945 L854.304299,146.963798 Z M872.61254,166.907104 L870.549527,184.559426 L865.364117,184.559426 L870.242863,142.469945 L880.753076,142.469945 C882.871856,142.469945 884.707176,142.704916 886.259089,143.174863 C887.811003,143.644811 889.093404,144.315456 890.106329,145.186817 C891.119255,146.058178 891.871968,147.115545 892.364492,148.358948 C892.857015,149.602351 893.103273,150.987697 893.103273,152.515027 C893.103273,154.218588 892.861662,155.804637 892.378431,157.273224 C891.8952,158.741811 891.198244,160.058624 890.28754,161.223702 C889.376836,162.388781 888.280291,163.377614 886.997871,164.190232 C885.715451,165.00285 884.265781,165.604962 882.648817,165.996585 C883.243563,166.42737 883.736079,167.014796 884.12638,167.75888 L892.740852,184.559426 L888.113013,184.559426 C887.202309,184.559426 886.551816,184.167809 886.161514,183.384563 L878.634306,168.228825 C878.392691,167.739296 878.113908,167.396631 877.79795,167.20082 C877.481991,167.005008 876.980182,166.907104 876.292508,166.907104 L872.61254,166.907104 Z M874.982216,146.787568 L873.086475,162.912568 L878.188249,162.912568 C879.768042,162.912568 881.161955,162.677598 882.370032,162.20765 C883.578108,161.737703 884.595665,161.076849 885.422733,160.225068 C886.249801,159.373288 886.872415,158.364874 887.290596,157.199795 C887.708776,156.034716 887.917863,154.757065 887.917863,153.366803 C887.917863,151.232457 887.281309,149.602351 886.008182,148.476434 C884.735056,147.350518 882.825394,146.787568 880.279141,146.787568 L874.982216,146.787568 Z M933.101026,146.963798 L915.621175,146.963798 L913.948462,161.150273 L928.110765,161.150273 L927.581073,165.467896 L913.446648,165.467896 L911.746057,180.094945 L929.281664,180.094945 L928.751972,184.559426 L905.975197,184.559426 L910.9097,142.469945 L933.630718,142.469945 L933.101026,146.963798 Z M978.367824,160.562842 C978.367824,164.146193 977.842783,167.411301 976.792686,170.358265 C975.742588,173.305229 974.292918,175.83116 972.443632,177.936134 C970.594346,180.041108 968.391962,181.671215 965.836416,182.826503 C963.280869,183.981791 960.497689,184.559426 957.48679,184.559426 L943.686908,184.559426 L948.621412,142.469945 L962.393415,142.469945 C964.84674,142.469945 967.063062,142.910515 969.042449,143.791667 C971.021836,144.672819 972.699178,145.911308 974.074527,147.507172 C975.449876,149.103036 976.50925,151.01217 977.252682,153.234631 C977.996113,155.457092 978.367824,157.899805 978.367824,160.562842 Z M973.015142,160.680328 C973.015142,158.565563 972.759591,156.656429 972.248482,154.952869 C971.737373,153.249308 971.003245,151.80522 970.046077,150.62056 C969.088908,149.4359 967.922667,148.52539 966.547319,147.889003 C965.17197,147.252615 963.62008,146.934426 961.891601,146.934426 L953.360765,146.934426 L949.457768,180.124317 L957.988604,180.124317 C960.218899,180.124317 962.254013,179.678852 964.094006,178.78791 C965.934,177.896967 967.513769,176.614421 968.83336,174.940232 C970.152951,173.266044 971.179801,171.229634 971.91394,168.830943 C972.648078,166.432251 973.015142,163.715407 973.015142,160.680328 Z M1008.99042,184.559426 L1013.92492,142.469945 L1025.74543,142.469945 C1027.82703,142.469945 1029.61589,142.69023 1031.11205,143.130806 C1032.6082,143.571382 1033.83949,144.19797 1034.80595,145.010587 C1035.77242,145.823205 1036.48796,146.812039 1036.9526,147.977117 C1037.41725,149.142196 1037.64957,150.439428 1037.64957,151.868852 C1037.64957,153.122046 1037.47765,154.316479 1037.13381,155.452186 C1036.78998,156.587893 1036.27423,157.635469 1035.58655,158.594945 C1034.89888,159.554422 1034.0393,160.406189 1033.00779,161.150273 C1031.97628,161.894357 1030.77286,162.491573 1029.39752,162.94194 C1031.79508,163.509793 1033.59788,164.503522 1034.80595,165.923156 C1036.01403,167.342789 1036.61806,169.149124 1036.61806,171.342213 C1036.61806,173.280747 1036.28817,175.057711 1035.62837,176.673156 C1034.96858,178.288601 1034.01607,179.683737 1032.77082,180.858607 C1031.52557,182.033476 1030.00621,182.943986 1028.21268,183.590164 C1026.41915,184.236342 1024.39797,184.559426 1022.14909,184.559426 L1008.99042,184.559426 Z M1016.46187,165.321038 L1014.70552,180.212432 L1022.56727,180.212432 C1024.03555,180.212432 1025.32724,180.006833 1026.44239,179.595628 C1027.55754,179.184424 1028.48681,178.596998 1029.23024,177.833333 C1029.97368,177.069668 1030.53124,176.149368 1030.90296,175.072404 C1031.27467,173.995441 1031.46053,172.781428 1031.46053,171.430328 C1031.46053,169.570118 1030.86579,168.086868 1029.6763,166.980533 C1028.48681,165.874198 1026.69331,165.321038 1024.29574,165.321038 L1016.46187,165.321038 Z M1016.90793,161.443989 L1023.34787,161.443989 C1024.85332,161.443989 1026.16824,161.233495 1027.29269,160.8125 C1028.41713,160.391505 1029.35569,159.804079 1030.10842,159.050205 C1030.86114,158.29633 1031.42336,157.390716 1031.79507,156.333333 C1032.16679,155.275951 1032.35264,154.11089 1032.35264,152.838115 C1032.35264,150.821256 1031.77649,149.308634 1030.62417,148.300205 C1029.47185,147.291775 1027.68764,146.787568 1025.27149,146.787568 L1018.6364,146.787568 L1016.90793,161.443989 Z M1066.57953,167.729508 L1064.60016,184.559426 L1059.38687,184.559426 L1061.36625,167.788251 L1050.82815,142.469945 L1055.45599,142.469945 C1055.92064,142.469945 1056.27376,142.592326 1056.51538,142.83709 C1056.75699,143.081855 1056.95214,143.390253 1057.10083,143.762295 L1063.73592,160.621585 C1063.92178,161.189438 1064.07976,161.727912 1064.20986,162.237022 C1064.33996,162.746132 1064.45147,163.255234 1064.5444,163.764344 C1064.76743,163.255234 1065.01369,162.746132 1065.28318,162.237022 C1065.55268,161.727912 1065.8454,161.189438 1066.16136,160.621585 L1076.78308,143.762295 C1076.98753,143.448997 1077.24308,143.155284 1077.54974,142.881148 C1077.85641,142.607011 1078.23277,142.469945 1078.67882,142.469945 L1083,142.469945 L1066.57953,167.729508 Z" id="POWERED-BY-USAJOBS" fill="#595959"></path>
                <path d="M1138.54089,176.827401 C1139.81116,176.827401 1140.94598,176.610815 1141.94539,176.177636 C1142.94479,175.744457 1143.79007,175.123577 1144.48125,174.314976 C1145.17243,173.506376 1145.70015,172.519706 1146.06441,171.354936 C1146.42868,170.190167 1146.61082,168.866585 1146.61082,167.38415 L1146.61082,142.462055 L1156.08177,142.462055 L1156.08177,167.38415 C1156.08177,169.963971 1155.67548,172.331979 1154.86288,174.488247 C1154.05028,176.644515 1152.88744,178.502343 1151.37432,180.061786 C1149.8612,181.62123 1148.0212,182.834113 1145.85426,183.70047 C1143.68732,184.566828 1141.24956,185 1138.54089,185 C1135.81354,185 1133.36643,184.566828 1131.19949,183.70047 C1129.03256,182.834113 1127.19256,181.62123 1125.67944,180.061786 C1124.16632,178.502343 1123.00815,176.644515 1122.20489,174.488247 C1121.40162,172.331979 1121,169.963971 1121,167.38415 L1121,142.462055 L1130.47096,142.462055 L1130.47096,167.355272 C1130.47096,168.837706 1130.65309,170.161288 1131.01736,171.326058 C1131.38163,172.490827 1131.90935,173.482311 1132.60052,174.300537 C1133.2917,175.118764 1134.13698,175.744457 1135.13639,176.177636 C1136.13579,176.610815 1137.27061,176.827401 1138.54089,176.827401 Z M1193.0049,151.010074 C1192.72469,151.472131 1192.43048,151.818669 1192.12225,152.049698 C1191.81403,152.280726 1191.41707,152.396239 1190.93138,152.396239 C1190.50173,152.396239 1190.03939,152.256661 1189.54436,151.977502 C1189.04933,151.698342 1188.48892,151.385495 1187.86312,151.038952 C1187.23733,150.692409 1186.52281,150.379563 1185.71955,150.100403 C1184.91629,149.821243 1184.00096,149.681666 1182.97353,149.681666 C1181.19889,149.681666 1179.87726,150.071521 1179.00862,150.851242 C1178.13998,151.630964 1177.70566,152.685017 1177.70566,154.013432 C1177.70566,154.860537 1177.96718,155.563239 1178.49024,156.121558 C1179.01329,156.679877 1179.69979,157.16118 1180.54975,157.56548 C1181.39971,157.96978 1182.37108,158.340383 1183.46389,158.6773 C1184.5567,159.014217 1185.67284,159.389633 1186.81235,159.803559 C1187.95186,160.217486 1189.068,160.703601 1190.16081,161.261921 C1191.25362,161.82024 1192.22499,162.532568 1193.07495,163.398925 C1193.92492,164.265283 1194.61141,165.319336 1195.13447,166.561115 C1195.65752,167.802894 1195.91904,169.299745 1195.91904,171.051713 C1195.91904,172.996204 1195.59214,174.815528 1194.93832,176.509738 C1194.28451,178.203948 1193.33648,179.681547 1192.09423,180.942579 C1190.85198,182.203611 1189.3202,183.195094 1187.49886,183.917058 C1185.67751,184.639023 1183.60868,185 1181.2923,185 C1180.02202,185 1178.72842,184.865235 1177.41145,184.595702 C1176.09447,184.326168 1174.81955,183.945939 1173.58664,183.455003 C1172.35372,182.964067 1171.19555,182.381691 1170.11208,181.707858 C1169.02861,181.034024 1168.08526,180.283192 1167.282,179.455339 L1170.08406,174.892545 C1170.28955,174.546002 1170.57909,174.266847 1170.9527,174.055071 C1171.32631,173.843294 1171.72793,173.737408 1172.15759,173.737408 C1172.718,173.737408 1173.28308,173.920303 1173.85283,174.286098 C1174.42259,174.651893 1175.06705,175.056188 1175.78625,175.498993 C1176.50545,175.941798 1177.33205,176.346092 1178.26607,176.711887 C1179.2001,177.077683 1180.30223,177.260578 1181.5725,177.260578 C1183.29111,177.260578 1184.62674,176.870723 1185.57945,176.091001 C1186.53215,175.311279 1187.0085,174.074331 1187.0085,172.380121 C1187.0085,171.398249 1186.74697,170.599287 1186.22392,169.98321 C1185.70087,169.367134 1185.01437,168.856953 1184.16441,168.452653 C1183.31444,168.048353 1182.34774,167.692189 1181.26428,167.38415 C1180.18081,167.076112 1179.06934,166.734387 1177.92983,166.358966 C1176.79032,165.983544 1175.67884,165.521494 1174.59538,164.972801 C1173.51191,164.424107 1172.54521,163.702154 1171.69525,162.806917 C1170.84528,161.911681 1170.15879,160.795059 1169.63573,159.457018 C1169.11268,158.118977 1168.85116,156.468109 1168.85116,154.504365 C1168.85116,152.925669 1169.15938,151.385501 1169.77584,149.883815 C1170.39229,148.382128 1171.29828,147.044107 1172.49383,145.869711 C1173.68938,144.695315 1175.15578,143.756775 1176.89306,143.054063 C1178.63035,142.351351 1180.61979,142 1182.86145,142 C1184.11304,142 1185.33193,142.101074 1186.51814,142.303224 C1187.70435,142.505374 1188.82983,142.803781 1189.89462,143.198455 C1190.9594,143.593129 1191.95413,144.064806 1192.87881,144.613499 C1193.80349,145.162192 1194.63009,145.783072 1195.35863,146.476158 L1193.0049,151.010074 Z M1246.6283,184.537945 L1239.2869,184.537945 C1238.46496,184.537945 1237.78781,184.340611 1237.25541,183.945937 C1236.72302,183.551263 1236.35408,183.045895 1236.1486,182.429819 L1233.73883,175.094694 L1218.21542,175.094694 L1215.80565,182.429819 C1215.61885,182.968886 1215.25458,183.455001 1214.71285,183.88818 C1214.17112,184.321359 1213.50797,184.537945 1212.72339,184.537945 L1205.32595,184.537945 L1221.12956,142.462055 L1230.82469,142.462055 L1246.6283,184.537945 Z M1220.40103,168.452653 L1231.55322,168.452653 L1227.79846,156.930154 C1227.55562,156.198564 1227.27074,155.337032 1226.94384,154.345534 C1226.61693,153.354036 1226.29469,152.280731 1225.97713,151.125588 C1225.67824,152.299983 1225.37001,153.387727 1225.05245,154.388852 C1224.73488,155.389976 1224.436,156.25632 1224.15579,156.987911 L1220.40103,168.452653 Z M1276.99461,169.290128 C1276.99461,171.638919 1276.70974,173.775903 1276.13998,175.701142 C1275.57023,177.626381 1274.71094,179.277249 1273.56209,180.653794 C1272.41324,182.03034 1270.97019,183.098832 1269.23291,183.859302 C1267.49562,184.619771 1265.45014,185 1263.0964,185 C1262.03161,185 1260.98085,184.942244 1259.94408,184.826729 C1258.90731,184.711215 1257.82853,184.518694 1256.7077,184.249161 L1257.21207,178.560107 C1257.24944,178.059545 1257.44091,177.655251 1257.7865,177.347213 C1258.13209,177.039175 1258.6131,176.885158 1259.22956,176.885158 C1259.54712,176.885158 1259.93941,176.938101 1260.40642,177.043989 C1260.87343,177.149877 1261.43384,177.202821 1262.08766,177.202821 C1263.003,177.202821 1263.80158,177.072869 1264.48342,176.812962 C1265.16525,176.553054 1265.73033,176.119882 1266.17866,175.513432 C1266.62699,174.906982 1266.96324,174.112832 1267.1874,173.13096 C1267.41157,172.149088 1267.52365,170.936206 1267.52365,169.492277 L1267.52365,142.462055 L1276.99461,142.462055 L1276.99461,169.290128 Z M1332.01903,163.485561 C1332.01903,166.527439 1331.51,169.357498 1330.49191,171.975823 C1329.47383,174.594148 1328.04012,176.870709 1326.19075,178.805574 C1324.34138,180.740439 1322.11377,182.256543 1319.50784,183.353929 C1316.90191,184.451315 1314.01115,185 1310.83547,185 C1307.65979,185 1304.76436,184.451315 1302.14909,183.353929 C1299.53382,182.256543 1297.29687,180.740439 1295.43816,178.805574 C1293.57945,176.870709 1292.14107,174.594148 1291.12299,171.975823 C1290.1049,169.357498 1289.59587,166.527439 1289.59587,163.485561 C1289.59587,160.443683 1290.1049,157.613624 1291.12299,154.995299 C1292.14107,152.376974 1293.57945,150.105226 1295.43816,148.179987 C1297.29687,146.254747 1299.53382,144.743457 1302.14909,143.646071 C1304.76436,142.548685 1307.65979,142 1310.83547,142 C1314.01115,142 1316.90191,142.553498 1319.50784,143.66051 C1322.11377,144.767523 1324.34138,146.283626 1326.19075,148.208865 C1328.04012,150.134104 1329.47383,152.405852 1330.49191,155.024177 C1331.51,157.642502 1332.01903,160.462935 1332.01903,163.485561 Z M1322.32391,163.485561 C1322.32391,161.406303 1322.06239,159.534036 1321.53934,157.868704 C1321.01628,156.203372 1320.2644,154.793156 1319.28368,153.638012 C1318.30295,152.482869 1317.10275,151.597272 1315.68303,150.981195 C1314.26332,150.365119 1312.64748,150.057085 1310.83547,150.057085 C1309.00478,150.057085 1307.37494,150.365119 1305.94588,150.981195 C1304.51682,151.597272 1303.31195,152.482869 1302.33122,153.638012 C1301.3505,154.793156 1300.59862,156.203372 1300.07557,157.868704 C1299.55251,159.534036 1299.29099,161.406303 1299.29099,163.485561 C1299.29099,165.584071 1299.55251,167.465964 1300.07557,169.131296 C1300.59862,170.796628 1301.3505,172.206844 1302.33122,173.361988 C1303.31195,174.517131 1304.51682,175.397915 1305.94588,176.004365 C1307.37494,176.610816 1309.00478,176.914036 1310.83547,176.914036 C1312.64748,176.914036 1314.26332,176.610816 1315.68303,176.004365 C1317.10275,175.397915 1318.30295,174.517131 1319.28368,173.361988 C1320.2644,172.206844 1321.01628,170.796628 1321.53934,169.131296 C1322.06239,167.465964 1322.32391,165.584071 1322.32391,163.485561 Z M1344.56425,184.537945 L1344.56425,142.462055 L1359.58329,142.462055 C1362.40404,142.462055 1364.80445,142.731584 1366.78458,143.270651 C1368.76471,143.809718 1370.38055,144.570176 1371.63214,145.552048 C1372.88373,146.53392 1373.79439,147.727551 1374.36415,149.132975 C1374.9339,150.5384 1375.21877,152.107446 1375.21877,153.840161 C1375.21877,154.783528 1375.08801,155.69319 1374.82648,156.569174 C1374.56496,157.445158 1374.15399,158.268185 1373.59358,159.038281 C1373.03316,159.808376 1372.31398,160.506265 1371.43599,161.131968 C1370.55801,161.75767 1369.50258,162.301542 1368.26967,162.7636 C1370.95966,163.437433 1372.9491,164.52999 1374.23805,166.041303 C1375.52701,167.552616 1376.17147,169.492265 1376.17147,171.860309 C1376.17147,173.650781 1375.83523,175.316088 1375.16273,176.856279 C1374.49023,178.396471 1373.50485,179.739305 1372.20656,180.884822 C1370.90827,182.030339 1369.30644,182.925562 1367.40103,183.570517 C1365.49562,184.215472 1363.31938,184.537945 1360.87223,184.537945 L1344.56425,184.537945 Z M1354.03521,166.691068 L1354.03521,177.173942 L1360.70411,177.173942 C1361.9557,177.173942 1362.97844,177.010299 1363.77236,176.683009 C1364.56628,176.355718 1365.1874,175.932172 1365.63573,175.412357 C1366.08406,174.892543 1366.39229,174.305354 1366.56041,173.650772 C1366.72854,172.996191 1366.8126,172.331994 1366.8126,171.65816 C1366.8126,170.888064 1366.71453,170.194989 1366.51838,169.578912 C1366.32224,168.962836 1365.98599,168.443029 1365.50964,168.019476 C1365.03329,167.595924 1364.40283,167.268638 1363.61825,167.037609 C1362.83367,166.80658 1361.84362,166.691068 1360.64807,166.691068 L1354.03521,166.691068 Z M1354.03521,160.16454 L1358.96683,160.16454 C1360.01294,160.16454 1360.95629,160.087532 1361.79691,159.933512 C1362.63753,159.779493 1363.35205,159.509964 1363.94049,159.124916 C1364.52892,158.739868 1364.97725,158.210435 1365.28548,157.536602 C1365.5937,156.862768 1365.74781,156.015676 1365.74781,154.995299 C1365.74781,153.994175 1365.62639,153.161521 1365.38355,152.497314 C1365.1407,151.833106 1364.7671,151.29886 1364.26272,150.89456 C1363.75835,150.49026 1363.11855,150.201478 1362.34331,150.028207 C1361.56807,149.854935 1360.64807,149.768301 1359.58329,149.768301 L1354.03521,149.768301 L1354.03521,160.16454 Z M1412.08586,151.010074 C1411.80565,151.472131 1411.51144,151.818669 1411.20321,152.049698 C1410.89498,152.280726 1410.49803,152.396239 1410.01234,152.396239 C1409.58268,152.396239 1409.12035,152.256661 1408.62532,151.977502 C1408.13028,151.698342 1407.56988,151.385495 1406.94408,151.038952 C1406.31829,150.692409 1405.60377,150.379563 1404.80051,150.100403 C1403.99725,149.821243 1403.08192,149.681666 1402.05449,149.681666 C1400.27984,149.681666 1398.95822,150.071521 1398.08958,150.851242 C1397.22093,151.630964 1396.78662,152.685017 1396.78662,154.013432 C1396.78662,154.860537 1397.04814,155.563239 1397.57119,156.121558 C1398.09425,156.679877 1398.78075,157.16118 1399.63071,157.56548 C1400.48067,157.96978 1401.45204,158.340383 1402.54485,158.6773 C1403.63766,159.014217 1404.7538,159.389633 1405.89331,159.803559 C1407.03282,160.217486 1408.14896,160.703601 1409.24177,161.261921 C1410.33458,161.82024 1411.30595,162.532568 1412.15591,163.398925 C1413.00587,164.265283 1413.69237,165.319336 1414.21542,166.561115 C1414.73848,167.802894 1415,169.299745 1415,171.051713 C1415,172.996204 1414.6731,174.815528 1414.01928,176.509738 C1413.36546,178.203948 1412.41744,179.681547 1411.17519,180.942579 C1409.93294,182.203611 1408.40116,183.195094 1406.57981,183.917058 C1404.75847,184.639023 1402.68963,185 1400.37325,185 C1399.10298,185 1397.80938,184.865235 1396.4924,184.595702 C1395.17543,184.326168 1393.9005,183.945939 1392.66759,183.455003 C1391.43468,182.964067 1390.27651,182.381691 1389.19304,181.707858 C1388.10957,181.034024 1387.16622,180.283192 1386.36296,179.455339 L1389.16502,174.892545 C1389.3705,174.546002 1389.66005,174.266847 1390.03366,174.055071 C1390.40727,173.843294 1390.80889,173.737408 1391.23854,173.737408 C1391.79896,173.737408 1392.36403,173.920303 1392.93379,174.286098 C1393.50354,174.651893 1394.14801,175.056188 1394.86721,175.498993 C1395.58641,175.941798 1396.41301,176.346092 1397.34703,176.711887 C1398.28105,177.077683 1399.38319,177.260578 1400.65346,177.260578 C1402.37206,177.260578 1403.7077,176.870723 1404.6604,176.091001 C1405.61311,175.311279 1406.08945,174.074331 1406.08945,172.380121 C1406.08945,171.398249 1405.82793,170.599287 1405.30488,169.98321 C1404.78182,169.367134 1404.09533,168.856953 1403.24536,168.452653 C1402.3954,168.048353 1401.4287,167.692189 1400.34523,167.38415 C1399.26176,167.076112 1398.15029,166.734387 1397.01078,166.358966 C1395.87127,165.983544 1394.7598,165.521494 1393.67633,164.972801 C1392.59287,164.424107 1391.62616,163.702154 1390.7762,162.806917 C1389.92624,161.911681 1389.23974,160.795059 1388.71669,159.457018 C1388.19364,158.118977 1387.93211,156.468109 1387.93211,154.504365 C1387.93211,152.925669 1388.24034,151.385501 1388.85679,149.883815 C1389.47325,148.382128 1390.37924,147.044107 1391.57479,145.869711 C1392.77034,144.695315 1394.23674,143.756775 1395.97402,143.054063 C1397.71131,142.351351 1399.70075,142 1401.94241,142 C1403.194,142 1404.41288,142.101074 1405.59909,142.303224 C1406.7853,142.505374 1407.91079,142.803781 1408.97557,143.198455 C1410.04036,143.593129 1411.03508,144.064806 1411.95977,144.613499 C1412.88445,145.162192 1413.71105,145.783072 1414.43959,146.476158 L1412.08586,151.010074 Z" id="POWERED-BY-USAJOBS" fill="#981B1E"></path>
                <path d="M75.0264408,36.4332282 C69.1991153,29.8632689 62.0364685,26.5783386 53.5382855,26.5783386 C45.0401024,26.5783386 37.8774556,29.8632689 32.0501301,36.4332282 C26.2228046,43.0031874 23.3091855,50.9417691 23.3091855,60.2492114 C23.3091855,69.5566536 26.2228046,77.4703495 32.0501301,83.9905363 C37.8774556,90.5107231 45.0401024,93.7707676 53.5382855,93.7707676 C62.0364685,93.7707676 69.1991153,90.5107231 75.0264408,83.9905363 C80.8537663,77.4703495 83.7673854,69.5566536 83.7673854,60.2492114 C83.7673854,50.9417691 80.8537663,43.0031874 75.0264408,36.4332282 Z M53.4654442,114.077813 C38.41152,114.077813 25.7372771,108.926445 15.4423354,98.6235542 C5.14739366,88.3206635 0,75.504458 0,60.1745531 C0,44.8446482 5.14739366,32.0284427 15.4423354,21.7255521 C25.7372771,11.4226614 38.41152,6.27129338 53.4654442,6.27129338 C68.5193685,6.27129338 81.1936114,11.4226614 91.4885531,21.7255521 C101.783495,32.0284427 106.930888,44.8446482 106.930888,60.1745531 C106.930888,75.504458 101.783495,88.3206635 91.4885531,98.6235542 C81.1936114,108.926445 68.5193685,114.077813 53.4654442,114.077813 Z M191.327357,43.0778128 C198.465831,50.8920825 202.035014,60.7219877 202.035014,72.5678233 C202.035014,84.4136589 198.465831,94.3182217 191.327357,102.281809 C184.188883,110.245396 175.836509,114.227129 166.269983,114.227129 C156.703457,114.227129 149.006646,110.295167 143.179321,102.431125 L143.179321,142 L121.326959,142 L121.326959,32.7003155 L143.179321,32.7003155 L143.179321,41.659306 C149.880745,34.7907122 157.796077,31.3564669 166.925554,31.3564669 C176.05503,31.3564669 184.188883,35.2635431 191.327357,43.0778128 Z M148.205364,88.9179811 C151.75032,93.0490918 156.047908,95.1146162 161.098257,95.1146162 C166.148606,95.1146162 170.567595,93.0490918 174.355356,88.9179811 C178.143118,84.7868703 180.03697,79.4861873 180.03697,73.0157729 C180.03697,66.5453585 178.191678,61.1202462 174.501039,56.7402734 C170.810399,52.3603006 166.39141,50.170347 161.24394,50.170347 C156.096469,50.170347 151.75032,52.3354147 148.205364,56.6656151 C144.660408,60.9958156 142.887956,66.4209278 142.887956,72.9411146 C142.887956,79.4613014 144.660408,84.7868703 148.205364,88.9179811 Z M283.590676,101.38591 C274.752565,109.946766 264.384938,114.227129 252.487481,114.227129 C240.590025,114.227129 230.756561,110.469368 222.986794,102.953733 C215.217026,95.4380977 211.332201,85.3593342 211.332201,72.7171399 C211.332201,60.0749456 215.289867,50.0210678 223.205317,42.555205 C231.120768,35.0893423 240.468629,31.3564669 251.249181,31.3564669 C262.029733,31.3564669 271.183353,34.6911689 278.710315,41.360673 C286.237277,48.0301771 290.000702,57.1881647 290.000702,68.8349106 L290.000702,80.7802313 L232.893197,80.7802313 C233.573052,85.1602042 235.806827,88.7437645 239.594588,91.53102 C243.38235,94.3182754 247.655658,95.7118822 252.41464,95.7118822 C260.087285,95.7118822 266.400127,93.0739836 271.353353,87.7981073 L283.590676,101.38591 Z M262.612409,53.7539432 C259.601624,51.1657775 255.93532,49.871714 251.613387,49.871714 C247.291454,49.871714 243.333788,51.2155491 239.740271,53.9032597 C236.146753,56.5909703 234.05866,60.2243024 233.475927,64.8033649 L267.856976,64.8033649 C267.371365,60.0252127 265.623194,56.342109 262.612409,53.7539432 Z M324.937992,68.2376446 L324.937992,113.032597 L303.085631,113.032597 L303.085631,32.7003155 L324.937992,32.7003155 L324.937992,41.659306 C331.542295,34.7907122 338.972023,31.3564669 347.227401,31.3564669 C355.482779,31.3564669 362.402624,34.3427672 367.987144,40.3154574 C373.571665,46.2881476 376.363883,54.2516151 376.363883,64.2060988 L376.363883,113.032597 L354.511522,113.032597 L354.511522,67.6403785 C354.511522,55.2968188 350.092533,49.1251314 341.254422,49.1251314 C336.883928,49.1251314 333.071943,50.7427108 329.818353,53.977918 C326.564763,57.2131252 324.937992,61.9663199 324.937992,68.2376446 Z M500.723685,36.4332282 C494.89636,29.8632689 487.733713,26.5783386 479.23553,26.5783386 C470.737347,26.5783386 463.5747,29.8632689 457.747375,36.4332282 C451.920049,43.0031874 449.00643,50.9417691 449.00643,60.2492114 C449.00643,69.5566536 451.920049,77.4703495 457.747375,83.9905363 C463.5747,90.5107231 470.737347,93.7707676 479.23553,93.7707676 C487.733713,93.7707676 494.89636,90.5107231 500.723685,83.9905363 C506.551011,77.4703495 509.46463,69.5566536 509.46463,60.2492114 C509.46463,50.9417691 506.551011,43.0031874 500.723685,36.4332282 Z M479.162689,114.077813 C464.108765,114.077813 451.434522,108.926445 441.13958,98.6235542 C430.844638,88.3206635 425.697245,75.504458 425.697245,60.1745531 C425.697245,44.8446482 430.844638,32.0284427 441.13958,21.7255521 C451.434522,11.4226614 464.108765,6.27129338 479.162689,6.27129338 C494.216613,6.27129338 506.890856,11.4226614 517.185798,21.7255521 C527.480739,32.0284427 532.628133,44.8446482 532.628133,60.1745531 C532.628133,75.504458 527.480739,88.3206635 517.185798,98.6235542 C506.890856,108.926445 494.216613,114.077813 479.162689,114.077813 Z M617.024602,43.0778128 C624.163075,50.8920825 627.732259,60.7219877 627.732259,72.5678233 C627.732259,84.4136589 624.163075,94.3182217 617.024602,102.281809 C609.886128,110.245396 601.533753,114.227129 591.967227,114.227129 C582.400701,114.227129 574.703891,110.295167 568.876565,102.431125 L568.876565,142 L547.024204,142 L547.024204,32.7003155 L568.876565,32.7003155 L568.876565,41.659306 C575.57799,34.7907122 583.493321,31.3564669 592.622798,31.3564669 C601.752275,31.3564669 609.886128,35.2635431 617.024602,43.0778128 Z M573.902608,88.9179811 C577.447565,93.0490918 581.745153,95.1146162 586.795502,95.1146162 C591.84585,95.1146162 596.264839,93.0490918 600.052601,88.9179811 C603.840363,84.7868703 605.734215,79.4861873 605.734215,73.0157729 C605.734215,66.5453585 603.888923,61.1202462 600.198283,56.7402734 C596.507644,52.3603006 592.088655,50.170347 586.941184,50.170347 C581.793713,50.170347 577.447565,52.3354147 573.902608,56.6656151 C570.357652,60.9958156 568.585201,66.4209278 568.585201,72.9411146 C568.585201,79.4613014 570.357652,84.7868703 573.902608,88.9179811 Z M711.400315,43.0778128 C718.538789,50.8920825 722.107972,60.7219877 722.107972,72.5678233 C722.107972,84.4136589 718.538789,94.3182217 711.400315,102.281809 C704.261842,110.245396 695.909467,114.227129 686.342941,114.227129 C676.776415,114.227129 669.079604,110.295167 663.252279,102.431125 L663.252279,142 L641.399918,142 L641.399918,32.7003155 L663.252279,32.7003155 L663.252279,41.659306 C669.953703,34.7907122 677.869035,31.3564669 686.998512,31.3564669 C696.127988,31.3564669 704.261842,35.2635431 711.400315,43.0778128 Z M668.278322,88.9179811 C671.823278,93.0490918 676.120867,95.1146162 681.171215,95.1146162 C686.221564,95.1146162 690.640553,93.0490918 694.428315,88.9179811 C698.216076,84.7868703 700.109929,79.4861873 700.109929,73.0157729 C700.109929,66.5453585 698.264636,61.1202462 694.573997,56.7402734 C690.883358,52.3603006 686.464369,50.170347 681.316898,50.170347 C676.169427,50.170347 671.823278,52.3354147 668.278322,56.6656151 C664.733366,60.9958156 662.960914,66.4209278 662.960914,72.9411146 C662.960914,79.4613014 664.733366,84.7868703 668.278322,88.9179811 Z M758.720611,88.9179811 C762.362689,93.0490918 767.02448,95.1146162 772.706122,95.1146162 C778.387764,95.1146162 783.049555,93.0490918 786.691633,88.9179811 C790.333712,84.7868703 792.154724,79.4364156 792.154724,72.8664564 C792.154724,66.2964971 790.333712,60.9211566 786.691633,56.7402734 C783.049555,52.5593902 778.387764,50.46898 772.706122,50.46898 C767.02448,50.46898 762.362689,52.5593902 758.720611,56.7402734 C755.078532,60.9211566 753.25752,66.2964971 753.25752,72.8664564 C753.25752,79.4364156 755.078532,84.7868703 758.720611,88.9179811 Z M802.352492,102.281809 C794.485603,110.245396 784.603578,114.227129 772.706122,114.227129 C760.808666,114.227129 750.926641,110.245396 743.059752,102.281809 C735.192862,94.3182217 731.259477,84.5132023 731.259477,72.8664564 C731.259477,61.2197104 735.192862,51.3898052 743.059752,43.3764458 C750.926641,35.3630865 760.808666,31.3564669 772.706122,31.3564669 C784.603578,31.3564669 794.485603,35.3630865 802.352492,43.3764458 C810.219382,51.3898052 814.152767,61.2197104 814.152767,72.8664564 C814.152767,84.5132023 810.219382,94.3182217 802.352492,102.281809 Z M868.902866,52.4100946 C862.395686,52.4100946 857.539654,54.7742491 854.334625,59.5026288 C851.129596,64.2310086 849.527105,70.4773534 849.527105,78.2418507 L849.527105,113.032597 L827.674744,113.032597 L827.674744,32.7003155 L849.527105,32.7003155 L849.527105,43.3017876 C852.343646,40.016808 855.864269,37.2295943 860.08908,34.9400631 C864.313891,32.6505318 868.611479,31.4560117 872.981973,31.3564669 L873.127656,52.4100946 L868.902866,52.4100946 Z M910.978594,48.8264984 L910.978594,84.8117771 C910.978594,87.897667 911.75556,90.3115931 913.309513,92.0536278 C914.863467,93.7956624 916.708759,94.6666667 918.845445,94.6666667 C922.924572,94.6666667 926.372355,92.7753431 929.188896,88.9926393 L937.347111,104.670873 C930.548564,111.041742 923.385917,114.227129 915.858955,114.227129 C908.331993,114.227129 901.970591,111.688774 896.77456,106.611987 C891.578528,101.535201 888.980551,94.6169383 888.980551,85.8569926 L888.980551,48.8264984 L879.802559,48.8264984 L879.802559,32.7003155 L888.980551,32.7003155 L888.980551,8.66035752 L910.978594,8.66035752 L910.978594,32.7003155 L929.917308,32.7003155 L929.917308,48.8264984 L910.978594,48.8264984 Z M996.904728,76.002103 L996.904728,32.7003155 L1018.90277,32.7003155 L1018.90277,113.032597 L996.904728,113.032597 L996.904728,102.431125 C991.465891,110.295167 984.448925,114.227129 975.85362,114.227129 C967.258315,114.227129 960.047108,111.464802 954.219782,105.940063 C948.392457,100.415325 945.478838,92.2278846 945.478838,81.3774974 L945.478838,32.7003155 L967.476882,32.7003155 L967.476882,76.4500526 C967.476882,88.7936124 971.895871,94.9652997 980.733981,94.9652997 C985.104475,94.9652997 988.89218,93.3477203 992.097209,90.1125131 C995.302238,86.8773059 996.904728,82.1738829 996.904728,76.002103 Z M1058.79326,68.2376446 L1058.79326,113.032597 L1036.9409,113.032597 L1036.9409,32.7003155 L1058.79326,32.7003155 L1058.79326,41.659306 C1065.39757,34.7907122 1072.8273,31.3564669 1081.08267,31.3564669 C1089.33805,31.3564669 1096.2579,34.3427672 1101.84242,40.3154574 C1107.42694,46.2881476 1110.21916,54.2516151 1110.21916,64.2060988 L1110.21916,113.032597 L1088.36679,113.032597 L1088.36679,67.6403785 C1088.36679,55.2968188 1083.9478,49.1251314 1075.10969,49.1251314 C1070.7392,49.1251314 1066.92722,50.7427108 1063.67363,53.977918 C1060.42004,57.2131252 1058.79326,61.9663199 1058.79326,68.2376446 Z M1149.23555,113.032597 L1127.38319,113.032597 L1127.38319,32.7003155 L1149.23555,32.7003155 L1149.23555,113.032597 Z M1125.48932,13.1398528 C1125.48932,9.45669382 1126.72761,6.34596432 1129.20422,3.80757098 C1131.68084,1.26917763 1134.71586,0 1138.30937,0 C1141.90289,0 1144.93791,1.26917763 1147.41452,3.80757098 C1149.89114,6.34596432 1151.12942,9.45669382 1151.12942,13.1398528 C1151.12942,16.8230118 1149.89114,19.9337413 1147.41452,22.4721346 C1144.93791,25.0105279 1141.90289,26.2797056 1138.30937,26.2797056 C1134.71586,26.2797056 1131.68084,25.0105279 1129.20422,22.4721346 C1126.72761,19.9337413 1125.48932,16.8230118 1125.48932,13.1398528 Z M1193.35084,48.8264984 L1193.35084,84.8117771 C1193.35084,87.897667 1194.1278,90.3115931 1195.68175,92.0536278 C1197.23571,93.7956624 1199.081,94.6666667 1201.21769,94.6666667 C1205.29681,94.6666667 1208.7446,92.7753431 1211.56114,88.9926393 L1219.71935,104.670873 C1212.92081,111.041742 1205.75816,114.227129 1198.2312,114.227129 C1190.70423,114.227129 1184.34283,111.688774 1179.1468,106.611987 C1173.95077,101.535201 1171.35279,94.6169383 1171.35279,85.8569926 L1171.35279,48.8264984 L1162.1748,48.8264984 L1162.1748,32.7003155 L1171.35279,32.7003155 L1171.35279,8.66035752 L1193.35084,8.66035752 L1193.35084,32.7003155 L1212.28955,32.7003155 L1212.28955,48.8264984 L1193.35084,48.8264984 Z M1250.57754,113.032597 L1228.72517,113.032597 L1228.72517,32.7003155 L1250.57754,32.7003155 L1250.57754,113.032597 Z M1226.8313,13.1398528 C1226.8313,9.45669382 1228.06959,6.34596432 1230.5462,3.80757098 C1233.02282,1.26917763 1236.05784,0 1239.65135,0 C1243.24487,0 1246.27989,1.26917763 1248.7565,3.80757098 C1251.23312,6.34596432 1252.47141,9.45669382 1252.47141,13.1398528 C1252.47141,16.8230118 1251.23312,19.9337413 1248.7565,22.4721346 C1246.27989,25.0105279 1243.24487,26.2797056 1239.65135,26.2797056 C1236.05784,26.2797056 1233.02282,25.0105279 1230.5462,22.4721346 C1228.06959,19.9337413 1226.8313,16.8230118 1226.8313,13.1398528 Z M1336.50367,101.38591 C1327.66556,109.946766 1317.29793,114.227129 1305.40047,114.227129 C1293.50302,114.227129 1283.66955,110.469368 1275.89979,102.953733 C1268.13002,95.4380977 1264.24519,85.3593342 1264.24519,72.7171399 C1264.24519,60.0749456 1268.20286,50.0210678 1276.11831,42.555205 C1284.03376,35.0893423 1293.38162,31.3564669 1304.16217,31.3564669 C1314.94273,31.3564669 1324.09635,34.6911689 1331.62331,41.360673 C1339.15027,48.0301771 1342.91369,57.1881647 1342.91369,68.8349106 L1342.91369,80.7802313 L1285.80619,80.7802313 C1286.48605,85.1602042 1288.71982,88.7437645 1292.50758,91.53102 C1296.29534,94.3182754 1300.56865,95.7118822 1305.32763,95.7118822 C1313.00028,95.7118822 1319.31312,93.0739836 1324.26635,87.7981073 L1336.50367,101.38591 Z M1315.5254,53.7539432 C1312.51462,51.1657775 1308.84831,49.871714 1304.52638,49.871714 C1300.20445,49.871714 1296.24678,51.2155491 1292.65326,53.9032597 C1289.05975,56.5909703 1286.97165,60.2243024 1286.38892,64.8033649 L1320.76997,64.8033649 C1320.28436,60.0252127 1318.53619,56.342109 1315.5254,53.7539432 Z M1406.47758,107.059937 C1400.79594,111.838089 1393.58473,114.227129 1384.84374,114.227129 C1379.01642,114.227129 1372.94638,113.157038 1366.63344,111.016824 C1360.3205,108.87661 1354.63895,105.716109 1349.5886,101.535226 L1359.20364,87.4994742 C1367.36189,93.9698886 1376.05419,97.2050473 1385.28079,97.2050473 C1388.09733,97.2050473 1390.3311,96.6326731 1391.98218,95.4879075 C1393.63325,94.3431418 1394.45878,92.8251058 1394.45878,90.9337539 C1394.45878,89.042402 1393.31761,87.3003935 1391.03524,85.7076761 C1388.75287,84.1149587 1385.45077,82.6218086 1381.12884,81.2281809 C1376.80691,79.8345531 1373.50481,78.640033 1371.22244,77.6445846 C1368.94007,76.6491363 1366.34209,75.2057578 1363.42843,73.3144059 C1357.50398,69.5317021 1354.5418,63.932389 1354.5418,56.5162986 C1354.5418,49.1002083 1357.45542,43.0529501 1363.28274,38.3743428 C1369.11007,33.6957355 1376.63692,31.3564669 1385.86352,31.3564669 C1395.09012,31.3564669 1404.31658,34.5418539 1413.54318,40.9127234 L1405.38496,55.8443743 C1398.58641,51.0662222 1391.81225,48.6771819 1385.06226,48.6771819 C1378.31228,48.6771819 1374.93734,50.5685054 1374.93734,54.3512093 C1374.93734,56.4416508 1376.00566,58.084116 1378.14235,59.278654 C1380.27904,60.4731921 1383.82394,61.8667989 1388.77717,63.4595163 C1393.73039,65.0522337 1397.25102,66.2716397 1399.33914,67.1177708 C1401.42727,67.9639019 1403.92812,69.2828512 1406.84179,71.0746583 C1412.28062,74.4591827 1415,80.1082675 1415,88.022082 C1415,95.9358966 1412.15922,102.281785 1406.47758,107.059937 Z" id="Open-Opportunities" fill="#009688"></path>
            </g>
        </g>
    </g>
</svg>
