<?xml version="1.0" encoding="utf-8"?>
<!-- Generator: Adobe Illustrator 19.1.0, SVG Export Plug-In . SVG Version: 6.00 Build 0)  -->
<svg version="1.1" id="Layer_1" xmlns="http://www.w3.org/2000/svg" xmlns:xlink="http://www.w3.org/1999/xlink" x="0px" y="0px"
	 viewBox="0 0 376 90.1" style="enable-background:new 0 0 376 90.1;" xml:space="preserve">
<style type="text/css">
	.st0{fill:#981D20;}
</style>
<g>
	<path class="st0" d="M178.4,65.5c0,1.1,0,2.3-0.1,3.5c-0.1,1.2-0.3,2.4-0.7,3.4c-0.3,1-1.5,4.6-8.4,3.5l-0.7,0v12l0.5,0.1
		c1.8,0.4,3.5,0.6,5.1,0.6c4,0,7.2-0.6,9.7-1.8c2.5-1.2,4.4-2.9,5.8-4.9c1.3-2,2.3-4.4,2.7-7c0.5-2.6,0.7-3.3,0.7-6V4.7h-14.7V65.5z
		"/>
	<path class="st0" d="M41.6,40.5c0,4-0.5,7-1.4,9.2c-1,2.3-2.3,3.9-4.2,4.9c-1.9,1-4.2,1.5-6.8,1.5c-2.6,0-4.9-0.5-6.8-1.5
		c-1.8-1-3.2-2.6-4.2-4.8c-0.9-2.1-1.4-5.2-1.4-9.2V4.6H2.3v36.9c0,2.6,0.1,4.9,0.4,7c0.3,2.1,0.8,4.1,1.5,5.9
		c0.9,2.2,2,4.3,3.5,6.1c1.5,1.8,3.3,3.3,5.3,4.6c2.1,1.2,4.4,2.2,7.1,2.8c2.6,0.6,5.6,1,8.9,1c3.3,0,6.3-0.3,8.9-1
		c2.7-0.6,5.1-1.6,7.2-2.8c2.1-1.2,4-2.8,5.4-4.6c1.5-1.8,2.7-3.8,3.5-6.1c0.7-1.8,1.2-3.8,1.5-5.9c0.3-2.1,0.4-4.5,0.4-7V4.6H41.6
		V40.5z"/>
	<path class="st0" d="M101.7,34.4C99.8,33,97.5,32,95,31.2c-2.4-0.7-4.9-1.3-7.4-1.9c-1.6-0.3-3.1-0.7-4.4-1
		c-1.3-0.3-2.4-0.8-3.4-1.4c-0.9-0.5-1.5-1.1-2-1.9c-0.4-0.7-0.7-1.6-0.7-2.8c0-2,0.7-3.4,2.1-4.4c1.6-1.1,4.1-1.7,7.3-1.7
		c2.4,0,5,0.3,7.7,0.8c2.7,0.5,5.6,1.4,8.6,2.6l2.5,1V7.4l-1.1-0.5c-2.4-1-5.3-1.9-8.7-2.5c-6.7-1.3-13.7-1.3-19.1,0.2
		c-2.8,0.8-5.2,2.1-7.3,3.8c-2.1,1.7-3.8,3.9-5,6.4c-1.2,2.6-1.8,5.6-1.8,9c0,3.1,0.5,5.8,1.6,7.9c1.1,2.1,2.5,3.9,4.4,5.3
		c1.8,1.3,3.8,2.4,6.1,3.2c2.2,0.7,4.5,1.3,6.9,1.9c1.7,0.4,3.4,0.7,5,1.1c1.5,0.3,2.8,0.8,4,1.3c1,0.5,1.8,1.1,2.4,1.8
		c0.5,0.6,0.7,1.5,0.7,2.6c0,1.4-0.3,2.5-0.9,3.3c-0.6,0.9-1.5,1.7-2.5,2.2c-1.2,0.6-2.5,1-4,1.3c-4.3,0.7-8.9,0.4-13.1-0.4
		c-2.7-0.6-5.5-1.5-8.3-2.7l-2.5-1.1v13L63,65c2.2,1.2,5.1,2.2,8.4,2.9c3.2,0.7,6.6,1,10,1c3.8,0,7.4-0.4,10.7-1.2
		c3.3-0.8,6.2-2,8.6-3.7c2.4-1.7,4.3-3.9,5.6-6.5c1.3-2.6,2-5.7,2-9.1c0-3.4-0.6-6.3-1.8-8.5C105.3,37.6,103.7,35.8,101.7,34.4z"/>
	<path class="st0" d="M170.8,65.6l-24.3-61h-12.5l-25.2,63.2h15.6l5.9-15.2h20.1l5.9,15.2h15.5 M145.5,39.8h-10.2l1.1-2.9
		c1.2-3.1,2.6-6.8,4-11c1.5,4.2,2.8,7.9,4,11L145.5,39.8z"/>
	<path class="st0" d="M253.7,12.7c-2.7-2.9-6-5.2-9.8-6.8c-3.8-1.6-8.2-2.4-13.1-2.4c-4.8,0-9.2,0.8-13.1,2.4
		c-3.8,1.6-7.1,3.9-9.8,6.8c-2.6,2.9-4.7,6.4-6,10.4c-1.4,4-2,8.4-2,13.1c0,4.7,0.7,9.1,2,13.1c1.4,4,3.4,7.5,6,10.4
		c2.7,2.9,6,5.2,9.8,6.8c3.8,1.6,8.2,2.4,13.1,2.4c4.8,0,9.2-0.8,13.1-2.4c3.8-1.6,7.1-3.9,9.8-6.8c2.6-2.9,4.7-6.4,6-10.4
		c1.4-4,2-8.4,2-13.1c0-4.7-0.7-9.1-2-13.1C258.3,19.1,256.3,15.6,253.7,12.7z M224.3,54.8c-1.9-0.8-3.6-2-5-3.6
		c-1.4-1.6-2.5-3.7-3.4-6.1c-0.8-2.5-1.3-5.5-1.3-9c0-3.4,0.4-6.4,1.3-9c0.8-2.5,1.9-4.6,3.4-6.2c1.4-1.6,3.1-2.8,5-3.6
		c1.9-0.8,4.1-1.2,6.5-1.2c2.3,0,4.5,0.4,6.5,1.2c1.9,0.8,3.6,2,5,3.6c1.4,1.6,2.5,3.7,3.4,6.2c0.8,2.5,1.3,5.5,1.3,9
		c0,3.4-0.4,6.4-1.3,9c-0.8,2.5-1.9,4.5-3.4,6.1c-1.4,1.6-3.1,2.8-5,3.6C233.4,56.5,228.2,56.5,224.3,54.8z"/>
	<path class="st0" d="M314.8,38.5c-1-1.2-2.2-2.3-3.6-3.2c-0.5-0.3-0.9-0.6-1.4-0.8c1.6-1.2,2.8-2.7,3.7-4.3c1.3-2.4,2-5.1,2-8
		c0-1.6-0.3-3.3-0.8-4.9c-0.5-1.6-1.3-3.2-2.4-4.6c-1.1-1.4-2.5-2.8-4.1-3.9c-1.6-1.2-3.6-2.1-5.8-2.8c-2.9-0.9-6.7-1.4-11.3-1.4
		h-22.6v63.2h19.2c1.7,0,3.2,0,4.5-0.1c1.4,0,2.6-0.1,3.7-0.2c1.1-0.1,2.1-0.2,3.1-0.4c0.9-0.2,1.8-0.3,2.6-0.5
		c3.1-0.8,5.8-2,7.9-3.4c2.1-1.4,3.8-3,5.1-4.7c1.3-1.7,2.2-3.6,2.7-5.4c0.5-1.8,0.8-3.5,0.8-5.2c0-1.9-0.3-3.6-0.8-5.2
		C316.6,41.1,315.8,39.7,314.8,38.5z M299.7,26.3c-0.5,0.9-1.4,1.5-2.6,2.1c-0.9,0.3-2.6,0.8-6,0.8H283V17.3h7.2
		c1.5,0,2.8,0,3.8,0.1c1,0.1,1.8,0.2,2.5,0.4c1.5,0.5,2.6,1.1,3.1,2c0.6,0.9,0.9,2,0.9,3.2C300.5,24.3,300.3,25.3,299.7,26.3z
		 M283,41.8h8.6c1.7,0,3.2,0.1,4.3,0.2c1,0.1,1.9,0.3,2.7,0.5c1.6,0.5,2.7,1.2,3.4,2.2c0.7,0.9,1,2,1,3.3c0,0.8-0.1,1.5-0.3,2.2
		c-0.2,0.6-0.5,1.1-1,1.7c-0.5,0.5-1.1,1-2,1.5c-0.9,0.5-2,0.8-3.4,1.1c-0.9,0.2-2,0.4-3.2,0.5c-1.3,0.1-2.9,0.2-4.8,0.2H283V41.8z"
		/>
	<path class="st0" d="M365.9,39.9c-1.2-2.3-2.8-4.1-4.8-5.5c-1.9-1.4-4.2-2.4-6.7-3.2c-2.4-0.7-4.9-1.3-7.4-1.9
		c-1.6-0.3-3.1-0.7-4.4-1c-1.3-0.3-2.4-0.8-3.4-1.4c-0.9-0.5-1.5-1.1-2-1.9c-0.4-0.7-0.7-1.6-0.7-2.8c0-2,0.7-3.4,2.1-4.4
		c1.6-1.1,4.1-1.7,7.3-1.7c2.4,0,5,0.3,7.7,0.8c2.7,0.5,5.6,1.4,8.6,2.6l2.5,1V7.4l-1.1-0.5c-2.4-1-5.3-1.9-8.7-2.5
		c-6.7-1.3-13.7-1.3-19.1,0.2c-2.8,0.8-5.2,2.1-7.3,3.8c-2.1,1.7-3.8,3.9-5,6.4c-1.2,2.6-1.8,5.6-1.8,9c0,3.1,0.5,5.8,1.6,7.9
		c1.1,2.1,2.5,3.9,4.4,5.3c1.8,1.3,3.8,2.4,6.1,3.2c2.2,0.7,4.5,1.3,6.9,1.9c1.7,0.4,3.4,0.7,5,1.1c1.5,0.3,2.8,0.8,4,1.3
		c1,0.5,1.8,1.1,2.4,1.8c0.5,0.6,0.7,1.5,0.7,2.6c0,1.4-0.3,2.5-0.9,3.3c-0.6,0.9-1.5,1.7-2.5,2.2c-1.2,0.6-2.5,1-4,1.3
		c-4.3,0.7-8.9,0.4-13.1-0.4c-2.7-0.6-5.5-1.5-8.3-2.7l-2.5-1.1v13l0.9,0.5c2.2,1.2,5.1,2.2,8.4,2.9c3.2,0.7,6.6,1,10,1
		c3.8,0,7.4-0.4,10.7-1.2c3.3-0.8,6.2-2,8.6-3.7c2.4-1.7,4.3-3.9,5.6-6.5c1.3-2.6,2-5.7,2-9.1C367.7,45,367.1,42.2,365.9,39.9z"/>
	<g>
		<path class="st0" d="M367.6,10.6c0-0.4,0.1-0.8,0.2-1.1c0.1-0.3,0.3-0.6,0.6-0.9c0.2-0.2,0.5-0.4,0.9-0.6c0.3-0.1,0.7-0.2,1.1-0.2
			c0.4,0,0.7,0.1,1.1,0.2c0.3,0.1,0.6,0.3,0.9,0.6c0.2,0.2,0.4,0.5,0.6,0.9c0.1,0.3,0.2,0.7,0.2,1.1s-0.1,0.8-0.2,1.1
			c-0.1,0.3-0.3,0.6-0.6,0.9c-0.2,0.2-0.5,0.4-0.9,0.6c-0.3,0.1-0.7,0.2-1.1,0.2c-0.4,0-0.7-0.1-1.1-0.2c-0.3-0.1-0.6-0.3-0.9-0.6
			c-0.2-0.2-0.4-0.5-0.6-0.9C367.6,11.3,367.6,11,367.6,10.6z M368.3,10.6c0,0.3,0,0.6,0.1,0.8c0.1,0.3,0.2,0.5,0.4,0.7
			c0.2,0.2,0.4,0.3,0.7,0.5c0.3,0.1,0.5,0.2,0.8,0.2c0.3,0,0.6-0.1,0.8-0.2c0.3-0.1,0.5-0.3,0.7-0.5c0.2-0.2,0.3-0.4,0.4-0.7
			c0.1-0.3,0.1-0.5,0.1-0.8s0-0.6-0.1-0.8c-0.1-0.3-0.2-0.5-0.4-0.7c-0.2-0.2-0.4-0.3-0.7-0.4c-0.3-0.1-0.5-0.2-0.8-0.2
			c-0.3,0-0.6,0.1-0.8,0.2c-0.3,0.1-0.5,0.3-0.7,0.4c-0.2,0.2-0.3,0.4-0.4,0.7C368.3,10,368.3,10.3,368.3,10.6z M370.8,10.8l0.8,1.1
			h-0.8l-0.7-1H370v1h-0.8V9.2h1.1c0.2,0,0.3,0,0.5,0c0.1,0,0.3,0.1,0.4,0.1c0.1,0.1,0.2,0.2,0.3,0.3c0.1,0.1,0.1,0.2,0.1,0.4
			c0,0.2-0.1,0.4-0.2,0.5C371.2,10.7,371,10.7,370.8,10.8L370.8,10.8z M370,9.7v0.7h0.2c0.2,0,0.3,0,0.4-0.1
			c0.1-0.1,0.1-0.1,0.1-0.3c0-0.1,0-0.2-0.1-0.2c-0.1-0.1-0.2-0.1-0.3-0.1H370z"/>
	</g>
</g>
</svg>
